
<svg class="animated" id="freepik_stories-chilling" xmlns="http://www.w3.org/2000/svg" viewBox="0 0 500 500" version="1.1" xmlns:xlink="http://www.w3.org/1999/xlink" xmlns:svgjs="http://svgjs.com/svgjs"><style>svg#freepik_stories-chilling:not(.animated) .animable {opacity: 0;}svg#freepik_stories-chilling.animated #freepik--background-complete--inject-37 {animation: 3s Infinite  linear shake;animation-delay: 0s;}svg#freepik_stories-chilling.animated #freepik--Shadow--inject-37 {animation: 6s Infinite  linear shake;animation-delay: 0s;}svg#freepik_stories-chilling.animated #freepik--Plant--inject-37 {animation: 1.5s Infinite  linear wind;animation-delay: 0s;}svg#freepik_stories-chilling.animated #freepik--Sofa--inject-37 {animation: 1.5s Infinite  linear floating;animation-delay: 0s;}svg#freepik_stories-chilling.animated #freepik--Character--inject-37 {animation: 3s Infinite  linear heartbeat;animation-delay: 0s;}svg#freepik_stories-chilling.animated #freepik--Shoes--inject-37 {animation: 1.5s Infinite  linear wind;animation-delay: 0s;}svg#freepik_stories-chilling.animated #freepik--Table--inject-37 {animation: 3s Infinite  linear shake;animation-delay: 0s;}            @keyframes shake {                10%, 90% {                    transform: translate3d(-1px, 0, 0);                  }                  20%, 80% {                    transform: translate3d(2px, 0, 0);                  }                  30%, 50%, 70% {                    transform: translate3d(-4px, 0, 0);                  }                  40%, 60% {                    transform: translate3d(4px, 0, 0);                  }            }                    @keyframes wind {                0% {                    transform: rotate( 0deg );                }                25% {                    transform: rotate( 1deg );                }                75% {                    transform: rotate( -1deg );                }            }                    @keyframes floating {                0% {                    opacity: 1;                    transform: translateY(0px);                }                50% {                    transform: translateY(-10px);                }                100% {                    opacity: 1;                    transform: translateY(0px);                }            }                    @keyframes heartbeat {                0% {                    transform: scale(1);                }                10% {                    transform: scale(1.1);                }                30% {                    transform: scale(1);                }                40% {                    transform: scale(1);                }                50% {                    transform: scale(1.1);                }                60% {                    transform: scale(1);                }                100% {                    transform: scale(1);                }            }        </style><g id="freepik--background-complete--inject-37" class="animable" style="transform-origin: 249.885px 184.065px;"><path d="M82.59,312.42l-13.12.28-6.66.11c-2.23.05-4.47,0-6.7.05h-.44v-.45l-.06-11.19v-.5h.5l13.24.06c4.42,0,8.83.11,13.24.17h.28v.27c0,1.9-.09,3.79-.13,5.65Zm0,0-.14-5.65c0-1.87-.11-3.71-.13-5.54l.27.27c-4.41.05-8.82.16-13.24.17l-13.24.06.5-.5,0,11.19-.45-.45c2.18,0,4.36,0,6.55.06l6.58.11Z" style="fill: rgb(235, 235, 235); transform-origin: 69.24px 306.79px;" id="el0wn2d32gz9a" class="animable"></path><path d="M67.82,326.53l-13.12.28-6.66.11c-2.23.05-4.47,0-6.7.05H40.9v-.45l-.06-11.19v-.5h.5l13.24.06c4.41,0,8.83.11,13.24.17h.28v.27c0,1.9-.08,3.79-.13,5.65Zm0,0-.14-5.66c-.05-1.86-.11-3.7-.13-5.53l.27.27c-4.41.05-8.83.16-13.24.17l-13.24.06.5-.5-.05,11.19-.45-.45c2.18,0,4.36,0,6.55.06l6.58.11Z" style="fill: rgb(235, 235, 235); transform-origin: 54.47px 320.9px;" id="elegrecspnq8g" class="animable"></path><path d="M275.09,107.29l-13.13.28-6.66.11c-2.22,0-4.46,0-6.69.06h-.45v-.45l0-11.19v-.5h.51l13.24.06c4.41,0,8.82.12,13.24.17h.27v.27c0,1.9-.09,3.79-.13,5.65Zm0,0-.15-5.65c0-1.87-.11-3.71-.13-5.54l.28.27c-4.42.06-8.83.16-13.24.17l-13.24.06.5-.5-.06,11.19-.44-.44c2.18,0,4.35,0,6.54.05l6.58.11Z" style="fill: rgb(235, 235, 235); transform-origin: 261.79px 101.67px;" id="elftxeoxn863d" class="animable"></path><path d="M260.32,121.4l-13.13.28-6.66.11c-2.23,0-4.46,0-6.7.06h-.44v-.45l0-11.19v-.5h.5l13.25.06c4.41,0,8.82.12,13.24.17h.27v.27c0,1.9-.09,3.79-.13,5.65Zm0,0-.15-5.65c0-1.87-.11-3.71-.13-5.54l.28.27c-4.42.06-8.83.16-13.24.17l-13.25.06.5-.5-.05,11.19-.45-.44c2.19,0,4.36,0,6.55.05l6.58.11Z" style="fill: rgb(235, 235, 235); transform-origin: 247.02px 115.78px;" id="elk3qs1b0njl" class="animable"></path><path d="M245.6,107.29l-13.12.28-6.66.11c-2.23,0-4.47,0-6.7.06h-.44v-.45l-.06-11.19v-.5h.5l13.24.06c4.41,0,8.83.12,13.24.17h.28v.27c0,1.9-.08,3.79-.13,5.65Zm0,0-.14-5.65c-.05-1.87-.11-3.71-.13-5.54l.27.27c-4.41.06-8.83.16-13.24.17l-13.24.06.5-.5-.05,11.19-.45-.44c2.18,0,4.36,0,6.55.05l6.58.11Z" style="fill: rgb(235, 235, 235); transform-origin: 232.25px 101.67px;" id="elqr8g1ckmh1q" class="animable"></path><path d="M458.66,326.53l-13.13.28-6.66.11c-2.22.05-4.46,0-6.69.05h-.45v-.45l-.05-11.19v-.5h.5l13.24.06c4.41,0,8.83.11,13.24.17h.27v.27c0,1.9-.08,3.79-.13,5.65Zm0,0-.14-5.66c0-1.86-.12-3.7-.13-5.53l.27.27c-4.41.05-8.83.16-13.24.17l-13.24.06.5-.5-.06,11.19-.44-.45c2.18,0,4.36,0,6.54.06l6.58.11Z" style="fill: rgb(235, 235, 235); transform-origin: 445.305px 320.9px;" id="elsqxnla8mppi" class="animable"></path><path d="M375.65,207.18l-13.13.28-6.66.11c-2.22,0-4.46,0-6.69.05h-.44v-.45L348.67,196v-.5h.5l13.24.06c4.41,0,8.83.11,13.24.16h.28V196c0,1.9-.08,3.78-.13,5.65Zm0,0-.14-5.66c-.05-1.86-.11-3.7-.13-5.53l.27.27c-4.41.05-8.83.16-13.24.16l-13.24.07.5-.5-.06,11.19-.44-.45c2.18,0,4.36,0,6.54.06l6.58.11Z" style="fill: rgb(235, 235, 235); transform-origin: 362.3px 201.56px;" id="elabrc22fqup" class="animable"></path><path d="M443.89,52.85l-13.13.28-6.66.11c-2.22,0-4.46,0-6.69.06H417v-.45l0-11.19v-.5h.51l13.24.06c4.41,0,8.82.12,13.24.17h.27v.27c0,1.9-.09,3.79-.13,5.65Zm0,0-.14-5.65c-.05-1.87-.12-3.71-.14-5.54l.28.27c-4.42,0-8.83.16-13.24.17l-13.24.06.5-.5-.06,11.19-.44-.45c2.18,0,4.35,0,6.54.06l6.58.11Z" style="fill: rgb(235, 235, 235); transform-origin: 430.63px 47.23px;" id="eluih2jlg86g" class="animable"></path><path d="M458.66,67l-13.13.28-6.66.11c-2.22.05-4.46,0-6.69.05h-.45V67l-.05-11.19v-.5h.5l13.24.06c4.41,0,8.83.12,13.24.17h.27v.27c0,1.9-.08,3.79-.13,5.65Zm0,0-.14-5.65c0-1.87-.12-3.71-.13-5.54l.27.27c-4.41.05-8.83.16-13.24.17l-13.24.06.5-.5L432.62,67l-.44-.45c2.18,0,4.36,0,6.54.06l6.58.11Z" style="fill: rgb(235, 235, 235); transform-origin: 445.305px 61.375px;" id="elvjshwofdb" class="animable"></path><path d="M82.59,52.85l-13.12.28-6.66.11c-2.23,0-4.47,0-6.7.06h-.44v-.45l-.06-11.19v-.5h.5l13.24.06c4.42,0,8.83.12,13.24.17h.28v.27c0,1.9-.09,3.79-.13,5.65Zm0,0-.14-5.65c0-1.87-.11-3.71-.13-5.54l.27.27c-4.41,0-8.82.16-13.24.17l-13.24.06.5-.5,0,11.19-.45-.45c2.18,0,4.36,0,6.55.06l6.58.11Z" style="fill: rgb(235, 235, 235); transform-origin: 69.24px 47.23px;" id="el1moy16xoa7y" class="animable"></path><rect x="302.98" y="41.67" width="145.8" height="185.89" style="fill: rgb(235, 235, 235); transform-origin: 375.88px 134.615px;" id="eljrn53xn6wr" class="animable"></rect><rect x="310.88" y="49.12" width="61.63" height="82.68" style="fill: rgb(255, 255, 255); transform-origin: 341.695px 90.46px;" id="elbkxp0hxklzh" class="animable"></rect><rect x="379.25" y="49.12" width="61.63" height="82.68" style="fill: rgb(255, 255, 255); transform-origin: 410.065px 90.46px;" id="elvrgtormof7" class="animable"></rect><rect x="310.88" y="137.44" width="61.63" height="82.68" style="fill: rgb(255, 255, 255); transform-origin: 341.695px 178.78px;" id="elx89gopdkltr" class="animable"></rect><rect x="379.25" y="137.44" width="61.63" height="82.68" style="fill: rgb(255, 255, 255); transform-origin: 410.065px 178.78px;" id="el2ugbkuhgtea" class="animable"></rect><polygon points="392.53 41.67 448.78 41.67 448.78 307.63 416.22 307.63 438.95 172.3 392.53 41.67" style="fill: rgb(219, 219, 219); transform-origin: 420.655px 174.65px;" id="elfydqp3g2rz6" class="animable"></polygon><polygon points="402.28 48.86 411.68 79.65 420.93 110.48 439.42 172.15 439.45 172.26 439.44 172.36 430.7 236.86 426.33 269.11 421.8 301.33 425.84 269.04 430.04 236.77 438.45 172.23 438.47 172.44 420.3 110.67 411.21 79.79 402.28 48.86" style="fill: rgb(235, 235, 235); transform-origin: 420.865px 175.095px;" id="el74lcxs6gk8h" class="animable"></polygon><polygon points="445.43 54.32 445.67 80.99 445.81 107.66 445.93 161 445.81 214.35 445.68 241.02 445.43 267.69 445.19 241.02 445.05 214.35 444.93 161 445.05 107.66 445.19 80.99 445.43 54.32" style="fill: rgb(235, 235, 235); transform-origin: 445.43px 161.005px;" id="eli0mu2w31v7" class="animable"></polygon><polygon points="434.92 59.32 437.14 87.64 439.27 115.97 443.38 172.63 443.38 172.66 443.38 172.68 441.32 235.84 440.19 267.41 438.95 298.98 439.68 267.4 440.52 235.81 442.4 172.65 442.4 172.7 438.54 116.02 436.68 87.67 434.92 59.32" style="fill: rgb(235, 235, 235); transform-origin: 439.15px 179.15px;" id="el6nmczfoyke6" class="animable"></polygon><path d="M427.6,294.89l3.14-30.65L434,233.6c2.25-20.41,4.42-40.84,6.74-61.24v.15L430.56,124.8l-5-23.87-4.94-23.88L426,100.84l5.28,23.82,10.42,47.65,0,.07v.08c-2.21,20.42-4.57,40.83-6.85,61.24l-3.56,30.6Z" style="fill: rgb(235, 235, 235); transform-origin: 431.16px 185.97px;" id="elwsy5vqfj0fi" class="animable"></path><rect x="436.08" y="170.07" width="12.7" height="6.2" style="fill: rgb(219, 219, 219); transform-origin: 442.43px 173.17px;" id="elpaaowd5hxuc" class="animable"></rect><polygon points="359.36 41.67 303.11 41.67 303.11 307.63 335.67 307.63 312.94 172.3 359.36 41.67" style="fill: rgb(219, 219, 219); transform-origin: 331.235px 174.65px;" id="el8ts1s9l1jsp" class="animable"></polygon><polygon points="349.61 48.86 340.68 79.79 331.59 110.67 313.42 172.44 313.44 172.23 321.85 236.77 326.05 269.04 330.09 301.33 325.56 269.11 321.19 236.86 312.45 172.36 312.44 172.26 312.47 172.15 330.96 110.48 340.21 79.65 349.61 48.86" style="fill: rgb(235, 235, 235); transform-origin: 331.025px 175.095px;" id="elzn9mh54gh9m" class="animable"></polygon><polygon points="306.46 54.32 306.7 80.99 306.84 107.66 306.96 161 306.84 214.35 306.7 241.02 306.46 267.69 306.21 241.02 306.07 214.35 305.96 161 306.08 107.66 306.22 80.99 306.46 54.32" style="fill: rgb(235, 235, 235); transform-origin: 306.46px 161.005px;" id="elpzcuxnazne9" class="animable"></polygon><polygon points="316.97 59.32 315.2 87.67 313.35 116.02 309.49 172.7 309.49 172.65 311.37 235.81 312.21 267.4 312.94 298.98 311.7 267.41 310.57 235.84 308.51 172.68 308.51 172.66 308.51 172.63 312.62 115.97 314.75 87.64 316.97 59.32" style="fill: rgb(235, 235, 235); transform-origin: 312.74px 179.15px;" id="elppeovvl4x0h" class="animable"></polygon><path d="M324.29,294.89l-3.66-30.59-3.56-30.6c-2.28-20.41-4.65-40.82-6.85-61.24v-.08l0-.07,10.41-47.65,5.28-23.82,5.36-23.79-4.94,23.88-5,23.87-10.16,47.71v-.15c2.33,20.4,4.5,40.83,6.75,61.24l3.24,30.64Z" style="fill: rgb(235, 235, 235); transform-origin: 320.745px 185.97px;" id="el5qd8heywejg" class="animable"></path><g id="ellm0xgv2ijss"><rect x="303.11" y="170.07" width="12.7" height="6.2" style="fill: rgb(219, 219, 219); transform-origin: 309.46px 173.17px; transform: rotate(180deg);" class="animable" id="elj7o3a53p1uh"></rect></g><rect x="51.22" y="41.67" width="145.8" height="185.89" style="fill: rgb(235, 235, 235); transform-origin: 124.12px 134.615px;" id="elt5tt28axk9b" class="animable"></rect><rect x="59.13" y="49.12" width="61.63" height="82.68" style="fill: rgb(255, 255, 255); transform-origin: 89.945px 90.46px;" id="elbi5ksctxdet" class="animable"></rect><rect x="127.49" y="49.12" width="61.63" height="82.68" style="fill: rgb(255, 255, 255); transform-origin: 158.305px 90.46px;" id="elh7ct3wun79v" class="animable"></rect><rect x="59.13" y="137.44" width="61.63" height="82.68" style="fill: rgb(255, 255, 255); transform-origin: 89.945px 178.78px;" id="el6oy0lkhjaxg" class="animable"></rect><rect x="127.49" y="137.44" width="61.63" height="82.68" style="fill: rgb(255, 255, 255); transform-origin: 158.305px 178.78px;" id="el15tfzzco7x2" class="animable"></rect><polygon points="140.78 41.67 197.02 41.67 197.02 307.63 164.47 307.63 187.19 172.3 140.78 41.67" style="fill: rgb(219, 219, 219); transform-origin: 168.9px 174.65px;" id="eljsks4m06hpf" class="animable"></polygon><polygon points="150.52 48.86 159.92 79.65 169.17 110.48 187.67 172.15 187.7 172.26 187.68 172.36 178.95 236.86 174.57 269.11 170.04 301.33 174.08 269.04 178.28 236.77 186.7 172.23 186.71 172.44 168.54 110.67 159.46 79.79 150.52 48.86" style="fill: rgb(235, 235, 235); transform-origin: 169.11px 175.095px;" id="elxcp4rz58qh9" class="animable"></polygon><polygon points="193.67 54.32 193.92 80.99 194.06 107.66 194.17 161 194.06 214.35 193.92 241.02 193.67 267.69 193.43 241.02 193.29 214.35 193.17 161 193.29 107.66 193.43 80.99 193.67 54.32" style="fill: rgb(235, 235, 235); transform-origin: 193.67px 161.005px;" id="elulwzjllmgbb" class="animable"></polygon><polygon points="183.16 59.32 185.39 87.64 187.52 115.97 191.62 172.63 191.62 172.66 191.62 172.68 189.56 235.84 188.43 267.41 187.19 298.98 187.92 267.4 188.76 235.81 190.64 172.65 190.64 172.7 186.78 116.02 184.93 87.67 183.16 59.32" style="fill: rgb(235, 235, 235); transform-origin: 187.39px 179.15px;" id="el4uhciavfhv6" class="animable"></polygon><path d="M175.84,294.89,179,264.24l3.24-30.64c2.25-20.41,4.42-40.84,6.75-61.24v.15L178.81,124.8l-5-23.87-4.93-23.88,5.35,23.79,5.28,23.82,10.42,47.65v.15c-2.2,20.42-4.57,40.83-6.85,61.24l-3.56,30.6Z" style="fill: rgb(235, 235, 235); transform-origin: 179.405px 185.97px;" id="elpkhmd73nzfs" class="animable"></path><rect x="184.32" y="170.07" width="12.7" height="6.2" style="fill: rgb(219, 219, 219); transform-origin: 190.67px 173.17px;" id="elfm4cgmw16fr" class="animable"></rect><polygon points="107.6 41.67 51.35 41.67 51.35 307.63 83.91 307.63 61.19 172.3 107.6 41.67" style="fill: rgb(219, 219, 219); transform-origin: 79.475px 174.65px;" id="elceo27ka1cz7" class="animable"></polygon><polygon points="97.86 48.86 88.92 79.79 79.84 110.67 61.66 172.44 61.68 172.23 70.09 236.77 74.29 269.04 78.33 301.33 73.8 269.11 69.43 236.86 60.69 172.36 60.68 172.26 60.71 172.15 79.2 110.48 88.46 79.65 97.86 48.86" style="fill: rgb(235, 235, 235); transform-origin: 79.27px 175.095px;" id="el87pdg7xuyhy" class="animable"></polygon><polygon points="54.7 54.32 54.95 80.99 55.09 107.66 55.2 161 55.09 214.35 54.95 241.02 54.7 267.69 54.46 241.02 54.32 214.35 54.2 161 54.32 107.66 54.46 80.99 54.7 54.32" style="fill: rgb(235, 235, 235); transform-origin: 54.7px 161.005px;" id="elm56v2pwu2w" class="animable"></polygon><polygon points="65.21 59.32 63.45 87.67 61.59 116.02 57.73 172.7 57.73 172.65 59.61 235.81 60.45 267.4 61.19 298.98 59.95 267.41 58.81 235.84 56.75 172.68 56.75 172.66 56.75 172.63 60.86 115.97 62.99 87.64 65.21 59.32" style="fill: rgb(235, 235, 235); transform-origin: 60.98px 179.15px;" id="elo0u66380pd" class="animable"></polygon><path d="M72.53,294.89,68.87,264.3l-3.55-30.6c-2.29-20.41-4.65-40.82-6.86-61.24v-.08l0-.07,10.42-47.65,5.28-23.82,5.35-23.79-4.94,23.88-5,23.87L59.4,172.51v-.15c2.32,20.4,4.49,40.83,6.74,61.24l3.25,30.64Z" style="fill: rgb(235, 235, 235); transform-origin: 68.985px 185.97px;" id="el1cwlc1w06i3" class="animable"></path><g id="eljnjcgjafg2n"><rect x="51.35" y="170.07" width="12.7" height="6.2" style="fill: rgb(219, 219, 219); transform-origin: 57.7px 173.17px; transform: rotate(180deg);" class="animable" id="elcnzsu446q09"></rect></g></g><g id="freepik--Floor--inject-37" class="animable" style="transform-origin: 250px 341.56px;"><polygon points="37.02 341.56 90.27 341.31 143.51 341.23 250 341.06 356.49 341.23 409.74 341.31 462.98 341.56 409.74 341.8 356.49 341.89 250 342.06 143.51 341.89 90.27 341.8 37.02 341.56" style="fill: rgb(38, 50, 56); transform-origin: 250px 341.56px;" id="el9fkj3zgw0x" class="animable"></polygon></g><g id="freepik--Shadow--inject-37" class="animable" style="transform-origin: 250px 433.59px;"><ellipse cx="250" cy="433.59" rx="201.59" ry="27.09" style="fill: rgb(235, 235, 235); transform-origin: 250px 433.59px;" id="elapqnr28v4q5" class="animable"></ellipse></g><g id="freepik--Plant--inject-37" class="animable" style="transform-origin: 421.65px 238.145px;"><path d="M424.35,182.08s22.39-3.14,17.15-30.16C441.5,151.92,416.49,157.53,424.35,182.08Z" style="fill: #46FF27; transform-origin: 432.558px 167px;" id="elw9rukwe6txn" class="animable"></path><g id="elxga0dpxap2l"><path d="M424.35,182.08s22.39-3.14,17.15-30.16C441.5,151.92,416.49,157.53,424.35,182.08Z" style="opacity: 0.1; transform-origin: 432.558px 167px;" class="animable" id="el45og5h2es8j"></path></g><path d="M425.48,176.44a41.7,41.7,0,0,1,1.53-4c0-.17,0-.35.05-.51,0-.37.07-.75.1-1.12.06-.8.11-1.61.16-2.42.09-1.61.2-3.23.22-4.84a.07.07,0,0,1,.14,0c0,1.62,0,3.23,0,4.85,0,.81-.07,1.61-.13,2.42,0,.18,0,.36,0,.54a49.1,49.1,0,0,1,4.49-7.68c.77-1.07,1.58-2.1,2.45-3.1s1.83-2,2.74-3c.06-.07.15,0,.09.09a40.21,40.21,0,0,0-4.31,5.74c-.68,1-1.32,2.09-1.94,3.16l.21-.08.8-.32,1.83-.7c1.2-.44,2.4-.88,3.6-1.34.07,0,.12.1.05.13-1.19.47-2.37,1-3.55,1.48l-1.73.75c-.29.13-.58.24-.87.36a2.68,2.68,0,0,1-.6.21c-.45.81-.9,1.62-1.31,2.45a58,58,0,0,0-2.73,6.45l-.17.47a12.94,12.94,0,0,1,1.84-.89l2.32-1c1.57-.72,3.13-1.46,4.63-2.31a.07.07,0,0,1,.07.12c-1.54.84-3.05,1.74-4.59,2.57-.77.42-1.54.83-2.33,1.21a7.39,7.39,0,0,1-2.11.84,26.62,26.62,0,0,0-1.46,6.35c-.25,3.06-.22,6.14-.3,9.2,0,.06-.07.05-.08,0-.22-2.78-.35-5.58-.36-8.37A24.47,24.47,0,0,1,425.48,176.44Z" style="fill: rgb(38, 50, 56); transform-origin: 430.912px 175.056px;" id="ell79sf49n7ec" class="animable"></path><path d="M428.93,160.55a27.07,27.07,0,0,1,.22,4.76c0,.05-.06,0-.07,0-.09-1.58-.1-3.16-.28-4.73C428.79,160.49,428.92,160.46,428.93,160.55Z" style="fill: rgb(38, 50, 56); transform-origin: 428.987px 162.914px;" id="elmze5sk6e9l8" class="animable"></path><path d="M435.33,161.9a17.12,17.12,0,0,0,2.88-1.42c.07,0,.14.08.06.12a10.61,10.61,0,0,1-2.9,1.39C435.31,162,435.27,161.92,435.33,161.9Z" style="fill: rgb(38, 50, 56); transform-origin: 436.803px 161.235px;" id="elbp70r3qf5j" class="animable"></path><path d="M423.64,225c0-2.47.06-4.95.09-7.42,0-8.22.11-16.43.26-24.65q.18-9.78.46-19.56a.09.09,0,0,1,.05-.08l0-5.34c0-.05.05-.07.11-.07s.11,0,.11.07l0,5.35a.09.09,0,0,1,.05.08c.33,11.6.62,23.21.69,34.82,0,2.36,0,4.72,0,7.08q.12,11.36.09,22.71l0,3.62c0,6.92-.07,13.84-.08,20.77,0,.37-.41.56-.85.58s-1-.18-1-.61c0-7.64-.05-15.27-.05-22.91C423.62,234.61,423.6,229.79,423.64,225Z" style="fill: rgb(38, 50, 56); transform-origin: 424.563px 215.421px;" id="el0q138oav7qfr" class="animable"></path><path d="M433,217.46s10.77-8,21-2.58,11.82,26.17,11.82,26.17-15,2.14-24.45-6.85C432.23,225.53,433,217.46,433,217.46Z" style="fill: #46FF27; transform-origin: 449.402px 227.134px;" id="elb389s96jxqt" class="animable"></path><path d="M430.05,218a13,13,0,0,1,6.24-.82,11.57,11.57,0,0,1,1.32-.13l1.51-.11,3.14-.22c2.13-.16,4.26-.29,6.38-.5.07,0,.09.12,0,.13-2.1.27-4.18.57-6.29.78-1.08.11-2.16.22-3.25.3l-.79.08c.33.07.65.14,1,.23a25.51,25.51,0,0,1,4.88,2c.85.15,1.69.38,2.52.58,1.33.31,2.66.66,4,1,2.62.68,5.21,1.45,7.8,2.21.09,0,.05.15,0,.13-2.59-.64-5.2-1.22-7.8-1.84l-3.78-.91-1-.23a31.53,31.53,0,0,1,7.65,6.66,41.47,41.47,0,0,1,5.32,8.39c0,.07-.07.15-.11.07a41.08,41.08,0,0,0-6.44-8.45c.05.15.09.29.14.43l.6,1.9c.4,1.27.8,2.54,1.18,3.81a.07.07,0,0,1-.13,0c-.46-1.23-.89-2.47-1.32-3.71-.22-.6-.43-1.21-.64-1.81-.11-.32-.22-.63-.32-.95,0-.1-.08-.19-.11-.29a36.67,36.67,0,0,0-3.82-3.25,28.38,28.38,0,0,0-5.71-3.28c0,.19.07.37.11.55.1.49.21,1,.31,1.47.21,1,.41,2.05.61,3.07.41,2.08.66,4.19,1.05,6.28,0,.08-.11.12-.13,0-.49-2.1-1.11-4.16-1.58-6.26-.23-1.05-.47-2.1-.68-3.15-.11-.49-.2-1-.3-1.48-.06-.27-.12-.55-.16-.82l-.58-.25c-2.82-1-6-1.8-9-1.22a8.79,8.79,0,0,0-6.48,5.19c-.1.23-.47.09-.41-.15A8.28,8.28,0,0,1,430.05,218Z" style="fill: rgb(38, 50, 56); transform-origin: 441.937px 226.027px;" id="elyjikmq34iw" class="animable"></path><path d="M446.53,226.83c.31,1.36.61,2.73.91,4.09a30.31,30.31,0,0,1,.75,4c0,.06-.07.06-.08,0a30.27,30.27,0,0,1-.92-4c-.26-1.34-.53-2.69-.79-4A.07.07,0,0,1,446.53,226.83Z" style="fill: rgb(38, 50, 56); transform-origin: 447.288px 230.88px;" id="elfxv3zp014r7" class="animable"></path><path d="M457,230.3c1.37.69,2.7,1.48,4.13,2a.07.07,0,1,1-.06.13,45.67,45.67,0,0,1-4.11-2.13S456.91,230.28,457,230.3Z" style="fill: rgb(38, 50, 56); transform-origin: 459.059px 231.364px;" id="elb5q7ryiksu" class="animable"></path><path d="M430.56,202.81s13.16.84,19.28-7.83,4.75-21.07,4.75-21.07-13.82,1.68-19.31,7.91S430.56,202.81,430.56,202.81Z" style="fill: #46FF27; transform-origin: 442.622px 188.371px;" id="elb2c8r3ya0xc" class="animable"></path><path d="M424.39,215.8c.45-1.41,1-2.8,1.55-4.18s1.06-2.65,1.64-4a80.54,80.54,0,0,1,3.94-7.75c.93-1.6,1.92-3.15,3-4.68,0-.23.07-.47.1-.7.06-.41.12-.82.19-1.22.13-.84.27-1.67.41-2.5.3-1.81.68-3.62,1-5.44,0-.08.15-.08.13,0-.26,1.8-.44,3.61-.69,5.4-.13.89-.24,1.77-.38,2.65,0,.32-.1.64-.15,1a98.35,98.35,0,0,1,6.51-8.45l1-1.07.13-.3.28-.76c.2-.52.39-1,.57-1.57.37-1,.7-2.07,1-3.13a.07.07,0,0,1,.13,0c-.26,1.08-.54,2.16-.86,3.23-.15.51-.32,1-.5,1.53a2.6,2.6,0,0,1-.1.25c1.69-1.83,3.44-3.6,5.21-5.34a.07.07,0,1,1,.1.09,94,94,0,0,0-9.33,11.43,6.71,6.71,0,0,1,1-.25c1-.2,2-.34,3.06-.47,2.14-.27,4.28-.54,6.41-.88.09,0,.12.11,0,.13-2,.4-4.06.86-6.09,1.33-.95.22-1.91.4-2.88.59a20.32,20.32,0,0,0-2.31.66c-.21.31-.43.61-.64.91q-1.44,2.12-2.8,4.29l1.34-.26c1-.2,2-.39,3.06-.55,2-.33,4-.68,6-1.13a.07.07,0,1,1,0,.13c-2,.47-4,1-6,1.55-1,.26-1.93.5-2.91.71l-1.46.32a4.85,4.85,0,0,1-.59.1c-1.92,3.12-3.73,6.31-5.4,9.56q-1.1,2.14-2.12,4.34c-.71,1.49-1.31,3-2,4.53C424.76,216.25,424.28,216.13,424.39,215.8Z" style="fill: rgb(38, 50, 56); transform-origin: 437.097px 197.421px;" id="eluohy8yfs23i" class="animable"></path><path d="M437.86,185.55c.25-1.25.51-2.5.79-3.75,0-.09.15-.05.13,0-.25,1.23-.49,2.47-.71,3.7a35.46,35.46,0,0,1-.75,3.69s0,0,0,0A25.47,25.47,0,0,1,437.86,185.55Z" style="fill: rgb(38, 50, 56); transform-origin: 438.051px 185.468px;" id="el1hd9j7mzoq8" class="animable"></path><path d="M445.53,185.19c.61-.31,1.26-.55,1.89-.8l1-.39.51-.2a2.34,2.34,0,0,0,.56-.25c.1-.07.16.1.06.12a2.45,2.45,0,0,0-.56.23l-.5.22-1,.43a19.26,19.26,0,0,1-1.95.77C445.51,185.35,445.46,185.22,445.53,185.19Z" style="fill: rgb(38, 50, 56); transform-origin: 447.548px 184.429px;" id="elcv5u4jydn7" class="animable"></path><path d="M417.09,192.47s-8-14.88-20.08-17.18-19.53,10.16-19.53,10.16,8.84,11.29,20,13.25S417.09,192.47,417.09,192.47Z" style="fill: #46FF27; transform-origin: 397.285px 187.005px;" id="el8yq5tp5hy7c" class="animable"></path><path d="M388.89,182a32.53,32.53,0,0,1,9.5.12l-.54-.29-2.68-1.39c-1.86-1-3.74-2-5.69-2.78a.07.07,0,1,1,0-.12c1.9.88,3.86,1.62,5.76,2.5,1,.43,1.89.89,2.82,1.38.59.32,1.26.62,1.84,1a33.47,33.47,0,0,1,7.7,2.55c-.5-.55-1-1.09-1.51-1.65-1.13-1.23-2.24-2.53-3.48-3.66-.07-.06,0-.15.1-.09,1.27,1.15,2.6,2.22,3.83,3.41.6.59,1.17,1.19,1.73,1.81.27.31.55.63.82,1a32,32,0,0,1,16.24,21.93.07.07,0,0,1-.13,0,36.55,36.55,0,0,0-8.91-15.07,35,35,0,0,0-16.23-9.39,35.5,35.5,0,0,0-11.2-1A.12.12,0,0,1,388.89,182Z" style="fill: rgb(38, 50, 56); transform-origin: 407.037px 192.647px;" id="el4rph8sdtueg" class="animable"></path><g id="elu3u0mkqu4tf"><path d="M377.48,185.45s8.84,11.29,20,13.26c8.48,1.5,15.46-2.92,18.29-5.1l.61-1s-5.73-4.83-16.58-7.62S377.48,185.45,377.48,185.45Z" style="opacity: 0.1; transform-origin: 396.93px 191.437px;" class="animable" id="el6syb5cfekxp"></path></g><path d="M395.93,176.65a29.79,29.79,0,0,1,2.69,1.78,16.86,16.86,0,0,1,2.34,2.13c.06.07,0,.16-.11.1-.8-.7-1.61-1.39-2.44-2.06a25.25,25.25,0,0,0-2.55-1.83A.07.07,0,1,1,395.93,176.65Z" style="fill: rgb(38, 50, 56); transform-origin: 398.401px 178.658px;" id="elg7jdvmhsrfe" class="animable"></path><path d="M389.28,179.17l1.36.53,1.35.56c.09,0,.05.2-.05.16l-1.35-.55c-.46-.18-.9-.39-1.35-.57C389.16,179.27,389.2,179.13,389.28,179.17Z" style="fill: rgb(38, 50, 56); transform-origin: 390.618px 179.794px;" id="elnysh6ermlt" class="animable"></path><path d="M418.68,211.19s-2.13,14.76-13.22,19.92-24.63,0-24.63,0S386.15,199.18,418.68,211.19Z" style="fill: #46FF27; transform-origin: 399.755px 220.946px;" id="elbbyq1h2svzw" class="animable"></path><path d="M388.48,221.51c1-.12,2-.29,3-.48l1.49-.28c.26-.05.52-.11.78-.15.3-.28.6-.57.9-.84a45,45,0,0,1,6.79-4.92,40,40,0,0,1,4.07-2.09h-.21l-3.66.16c-2.43.11-4.87.17-7.3.33-.09,0-.08-.14,0-.14,2.45-.17,4.88-.44,7.32-.64l3.54-.32,1.83-.16.47-.05q.94-.36,1.92-.66a17.38,17.38,0,0,1,9.4-.52c2.79.72,5.57,2.55,6.3,5.49,0,.1-.14.17-.18.07-1-2.46-3.77-3.7-6.24-4.21a14.84,14.84,0,0,0-5-.1,11.56,11.56,0,0,1-.56,2.23c-.31,1-.61,2.08-.93,3.12-.62,2.07-1.32,4.12-1.93,6.2a.07.07,0,0,1-.13,0c.51-2.07.95-4.16,1.45-6.24.24-1,.5-2,.75-3.05a17.72,17.72,0,0,1,.56-2.1,28,28,0,0,0-2.88.68,44.64,44.64,0,0,0-5,1.84c-.16,1.06-.4,2.1-.64,3.14-.3,1.3-.64,2.59-1.05,3.86a.07.07,0,0,1-.13,0,2.21,2.21,0,0,0,.05-.25h0c.25-1.21.51-2.41.77-3.61.2-1,.39-1.95.6-2.92a43.74,43.74,0,0,0-4,2c0,.3-.1.6-.15.88-.08.5-.17,1-.26,1.51-.21,1.14-.44,2.28-.71,3.4a55,55,0,0,1-1.91,6.42.06.06,0,0,1,0,.08l-.06.08c-.05.05-.13,0-.12-.07.52-2.19,1.1-4.36,1.58-6.55.24-1.1.49-2.19.71-3.29.11-.55.21-1.1.31-1.66,0-.15.05-.32.08-.49a47.68,47.68,0,0,0-4.32,2.88,46.81,46.81,0,0,0-6.62,6c-.08.09-.23,0-.16-.13.85-1.11,1.69-2.2,2.64-3.23.56-.6,1.14-1.17,1.73-1.74l-.18,0-1.56.24c-1,.13-2.06.23-3.09.35C388.42,221.65,388.39,221.52,388.48,221.51Z" style="fill: rgb(38, 50, 56); transform-origin: 406.774px 219.813px;" id="elq0apv4huhyb" class="animable"></path><path d="M396.28,226.51h0c0-.13,0-.25.06-.38s.11-.32.13-.48h0c.23-1,.42-2,.6-3,0-.06.12,0,.12,0a12.2,12.2,0,0,1-.85,3.86s-.08,0-.08,0Z" style="fill: rgb(38, 50, 56); transform-origin: 396.725px 224.567px;" id="elkny5joksbgb" class="animable"></path><path d="M405.56,226.28a.08.08,0,0,1,.07-.07c.31-1.3.61-2.61.88-3.93.14-.69.29-1.38.42-2.07l.21-1.12a2.83,2.83,0,0,1,.24-1,.07.07,0,0,1,.12,0,6.41,6.41,0,0,1-.28,2c-.13.72-.27,1.44-.43,2.15-.32,1.46-.69,2.91-1.1,4.34a.08.08,0,0,1-.15,0C405.55,226.49,405.56,226.38,405.56,226.28Z" style="fill: rgb(38, 50, 56); transform-origin: 406.521px 222.344px;" id="el5hbkfunzpu2" class="animable"></path><path d="M389.49,217.26c2-.28,4.05-.57,6.08-.82.09,0,.12.12,0,.13-2,.3-4.06.55-6.09.82C389.44,217.4,389.4,217.27,389.49,217.26Z" style="fill: rgb(38, 50, 56); transform-origin: 392.542px 216.915px;" id="elwu9fmaaxs7" class="animable"></path><path d="M424.37,176.58s6.79-29.79-25.22-41.85C399.15,134.73,390.28,174,424.37,176.58Z" style="fill: #46FF27; transform-origin: 411.542px 155.655px;" id="elr7uhhc76xz" class="animable"></path><path d="M417.46,159.68l-.35-.21-1.8-1-3.72-2.07c-2.44-1.37-4.85-2.79-7.31-4.13-.08,0,0-.16.07-.11,2.46,1.34,5,2.59,7.45,3.9l3.67,1.94,1.5.79c-1.07-2-2.21-4-3.46-5.92-1.68-2.55-3.51-5-5.42-7.36-.08-.11.06-.25.16-.15a50.85,50.85,0,0,1,7.4,9.07c0-.1,0-.21,0-.31q0-1.11-.06-2.22c0-1.46,0-2.91,0-4.37,0-.08.13-.08.14,0,.06,1.43.23,2.86.31,4.29,0,.71.07,1.42.09,2.14,0,.38.05.82,0,1.25.66,1,1.29,2.11,1.89,3.19a56,56,0,0,1,2.86,6c0-.74.08-1.48.12-2.23.1-1.63.29-3.25.36-4.88a.07.07,0,0,1,.14,0c0,1.63,0,3.26,0,4.9,0,.81,0,1.63-.1,2.44l-.06.91a54.07,54.07,0,0,1,2.42,8.19,87.76,87.76,0,0,1,1.19,9,0,0,0,1,1,0,0,48.91,48.91,0,0,0-1.7-8c-.4-1.41-.82-2.8-1.27-4.19-1.33-.63-2.6-1.41-3.89-2.13s-2.68-1.46-4-2.19c-2.67-1.47-5.33-3-8.09-4.25-.08,0,0-.15.07-.12,2.79,1.27,5.61,2.47,8.35,3.84,1.36.69,2.7,1.42,4,2.17,1.11.63,2.26,1.25,3.32,2-.31-.92-.64-1.85-1-2.76A80.57,80.57,0,0,0,417.46,159.68Z" style="fill: rgb(38, 50, 56); transform-origin: 414.598px 164.028px;" id="eliypxhkrlpb" class="animable"></path><path d="M420.16,152.87a.07.07,0,1,1,.13,0c-.11,1.69-.17,3.39-.35,5.09a.08.08,0,0,1-.15,0C419.85,156.26,420,154.57,420.16,152.87Z" style="fill: rgb(38, 50, 56); transform-origin: 420.043px 155.393px;" id="elngej9jpddck" class="animable"></path><path d="M404.81,158.56c2,.81,4,1.57,6,2.41.05,0,0,.11,0,.09-2-.76-4-1.58-6-2.37C404.69,158.66,404.73,158.53,404.81,158.56Z" style="fill: rgb(38, 50, 56); transform-origin: 407.783px 159.809px;" id="ele3g9lymoo3m" class="animable"></path><path d="M401.77,144.82a51,51,0,0,1,5.69,3.06.08.08,0,0,1-.09.14c-1.86-1.09-3.75-2.13-5.67-3.08C401.62,144.9,401.69,144.79,401.77,144.82Z" style="fill: rgb(38, 50, 56); transform-origin: 404.581px 146.424px;" id="el45ixjgwwo02" class="animable"></path><g id="ele288e0nv8c4"><rect x="402.25" y="241" width="46.16" height="48.66" style="fill: rgb(166, 166, 166); transform-origin: 425.33px 265.33px; transform: rotate(180deg);" class="animable" id="eld3lf8crz1cc"></rect></g><rect x="449.23" y="258.22" width="2.36" height="83.34" style="fill: rgb(38, 50, 56); transform-origin: 450.41px 299.89px;" id="elvn7axgysc6" class="animable"></rect><rect x="399.32" y="258.22" width="2.36" height="83.34" style="fill: rgb(38, 50, 56); transform-origin: 400.5px 299.89px;" id="elt8q3np4thrq" class="animable"></rect><rect x="423.02" y="258.22" width="2.36" height="83.34" style="fill: rgb(38, 50, 56); transform-origin: 424.2px 299.89px;" id="elr0066yzxkls" class="animable"></rect><g id="elq8obef9ubfp"><rect x="400.5" y="286.54" width="49.9" height="6.74" style="fill: rgb(38, 50, 56); transform-origin: 425.45px 289.91px; transform: rotate(180deg);" class="animable" id="elzsp9nbatcw"></rect></g></g><g id="freepik--Sofa--inject-37" class="animable" style="transform-origin: 250px 316.51px;"><polygon points="415.18 395.9 400.55 395.9 378.76 264.13 415.18 264.13 415.18 395.9" style="fill: rgb(55, 71, 79); transform-origin: 396.97px 330.015px;" id="elhf409mkhe1t" class="animable"></polygon><rect x="415.18" y="264.13" width="29.42" height="131.77" style="fill: rgb(69, 90, 100); transform-origin: 429.89px 330.015px;" id="elzt0c8c4soye" class="animable"></rect><path d="M415.18,264.13c.23,8.6.34,17.21.42,25.81l.13,47.72-.12,25.81-.16,12.9-.27,12.9-.27-12.9-.16-12.9-.12-25.81.12-47.72C414.84,281.34,415,272.73,415.18,264.13Z" style="fill: rgb(38, 50, 56); transform-origin: 415.18px 326.7px;" id="eljbzzklcs0kq" class="animable"></path><polygon points="260.82 339.53 225.88 339.53 205.89 224.6 237.88 207.66 260.82 339.53" style="fill: rgb(55, 71, 79); transform-origin: 233.355px 273.595px;" id="el2373t9hob2f" class="animable"></polygon><polygon points="392.38 339.53 260.82 339.53 237.88 207.66 369.44 207.66 392.38 339.53" style="fill: rgb(69, 90, 100); transform-origin: 315.13px 273.595px;" id="elrequt45rjc" class="animable"></polygon><polygon points="126.88 339.53 91.94 339.53 71.95 224.6 103.93 207.66 126.88 339.53" style="fill: rgb(38, 50, 56); transform-origin: 99.415px 273.595px;" id="elemmr4d72cod" class="animable"></polygon><polygon points="258.44 339.53 126.88 339.53 103.93 207.66 235.5 207.66 258.44 339.53" style="fill: rgb(69, 90, 100); transform-origin: 181.185px 273.595px;" id="ell89s05s6oxh" class="animable"></polygon><rect x="55.4" y="264.13" width="53.54" height="131.77" style="fill: rgb(55, 71, 79); transform-origin: 82.17px 330.015px;" id="el93rinfy86o" class="animable"></rect><rect x="108.94" y="264.13" width="29.42" height="131.77" style="fill: rgb(69, 90, 100); transform-origin: 123.65px 330.015px;" id="elk9zqwmvdpn" class="animable"></rect><path d="M116.15,264.13l11.1-.2,11.11-.13h.33v.34l.13,12.86,0,34.77c0,8.57.07,17.14,0,25.71s0,17.14-.15,25.71-.19,17.14-.37,25.71q-.27-12.86-.38-25.71c-.1-8.57-.12-17.14-.14-25.71s0-17.14,0-25.71L137.9,277l.12-12.86.34.34-11.11-.14Z" style="fill: rgb(38, 50, 56); transform-origin: 127.501px 326.35px;" id="elx2eo3kc9xj" class="animable"></path><rect x="138.36" y="339.53" width="276.82" height="56.37" style="fill: rgb(69, 90, 100); transform-origin: 276.77px 367.715px;" id="elqs1hiqzh6d" class="animable"></rect><rect x="138.36" y="315.16" width="276.82" height="24.6" style="fill: rgb(69, 90, 100); transform-origin: 276.77px 327.46px;" id="el4eth09x55g" class="animable"></rect><path d="M415.18,339.53c-13.63.23-27.26.34-40.88.42l-40.88.13L179.24,340l-20.44-.16-20.44-.27,20.44-.27,20.44-.16L333.42,339l40.88.12C387.92,339.19,401.55,339.3,415.18,339.53Z" style="fill: rgb(38, 50, 56); transform-origin: 276.77px 339.54px;" id="elyshlv6r3foq" class="animable"></path><path d="M415.18,315.16c-13.63.23-27.26.34-40.88.42l-40.88.13-154.18-.12-20.44-.16-20.44-.27,20.44-.27,20.44-.16,154.18-.12,40.88.13C387.92,314.82,401.55,314.93,415.18,315.16Z" style="fill: rgb(38, 50, 56); transform-origin: 276.77px 315.16px;" id="elaow4xq8a8a8" class="animable"></path><polygon points="75.75 395.9 75.03 404.8 73.33 425.36 65.58 425.36 63.89 404.8 63.17 395.9 75.75 395.9" style="fill: rgb(199, 199, 199); transform-origin: 69.46px 410.63px;" id="el581ksj9d2u5" class="animable"></polygon><polygon points="63.17 395.9 75.75 395.9 75.03 404.8 63.89 404.8 63.17 395.9" style="fill: rgb(166, 166, 166); transform-origin: 69.46px 400.35px;" id="el6zisbq9gez" class="animable"></polygon><polygon points="129.94 395.9 129.22 404.8 127.53 425.36 119.77 425.36 118.08 404.8 117.36 395.9 129.94 395.9" style="fill: rgb(199, 199, 199); transform-origin: 123.65px 410.63px;" id="el29ddjojmas7" class="animable"></polygon><polygon points="117.36 395.9 129.94 395.9 129.22 404.8 118.08 404.8 117.36 395.9" style="fill: rgb(166, 166, 166); transform-origin: 123.65px 400.35px;" id="el8u77chacdit" class="animable"></polygon><polygon points="381.7 395.9 380.97 404.8 379.28 425.36 371.53 425.36 369.84 404.8 369.12 395.9 381.7 395.9" style="fill: rgb(199, 199, 199); transform-origin: 375.41px 410.63px;" id="elhdcvuixsk2g" class="animable"></polygon><polygon points="369.12 395.9 381.7 395.9 380.97 404.8 369.84 404.8 369.12 395.9" style="fill: rgb(166, 166, 166); transform-origin: 375.41px 400.35px;" id="elqxxtll71ua" class="animable"></polygon><polygon points="435.9 395.9 435.17 404.8 433.48 425.36 425.73 425.36 424.04 404.8 423.32 395.9 435.9 395.9" style="fill: rgb(199, 199, 199); transform-origin: 429.61px 410.63px;" id="elqqcosk2dygr" class="animable"></polygon><polygon points="435.9 395.9 435.17 404.8 424.04 404.8 423.32 395.9 435.9 395.9" style="fill: rgb(166, 166, 166); transform-origin: 429.61px 400.35px;" id="eldx71ae15c6" class="animable"></polygon><g id="elw64day493n"><g style="opacity: 0.3; transform-origin: 251.66px 300.955px;" class="animable" id="elcty58jphxoi"><path d="M148.63,265.24a.65.65,0,0,0,0,1.3A.65.65,0,0,0,148.63,265.24Z" id="elp99qjpeikal" class="animable" style="transform-origin: 148.63px 265.89px;"></path><path d="M149.74,344.69a.65.65,0,0,0,0,1.3A.65.65,0,0,0,149.74,344.69Z" id="eleqfu7iph6g" class="animable" style="transform-origin: 149.74px 345.34px;"></path><path d="M109.34,225.6a1.14,1.14,0,0,0-.1-.19.29.29,0,0,0-.5,0,1.14,1.14,0,0,0-.1.19C108.27,226.37,109.71,226.37,109.34,225.6Z" id="elr46ljb48hq8" class="animable" style="transform-origin: 108.99px 225.722px;"></path><path d="M122.15,346.32a1.74,1.74,0,0,0-.1-.19.29.29,0,0,0-.5,0,1.74,1.74,0,0,0-.1.19C121.08,347.09,122.52,347.09,122.15,346.32Z" id="el9zeixqam4a" class="animable" style="transform-origin: 121.8px 346.442px;"></path><path d="M154.21,269.2a.5.5,0,0,0,0,1A.5.5,0,0,0,154.21,269.2Z" id="el5h9396tpea5" class="animable" style="transform-origin: 154.21px 269.7px;"></path><path d="M356.93,285.36a.5.5,0,0,0,0,1A.5.5,0,0,0,356.93,285.36Z" id="elaodrwawvoq" class="animable" style="transform-origin: 356.93px 285.86px;"></path><path d="M112.5,319.56a.5.5,0,0,0,0,1A.5.5,0,0,0,112.5,319.56Z" id="elypiqzcdlp1" class="animable" style="transform-origin: 112.5px 320.06px;"></path><path d="M177.63,241.52a.7.7,0,0,0-1,0,1,1,0,0,0-.24.94.75.75,0,0,0,1.44,0A1,1,0,0,0,177.63,241.52Z" id="ela3njk4y7zu" class="animable" style="transform-origin: 177.115px 242.155px;"></path><path d="M155.18,341a.7.7,0,0,0-1,0,1,1,0,0,0-.24.94.75.75,0,0,0,1.44,0A.94.94,0,0,0,155.18,341Z" id="elldsonz1awus" class="animable" style="transform-origin: 154.669px 341.635px;"></path><path d="M67.91,289.83a.7.7,0,0,0-1,0,1,1,0,0,0-.24.94.76.76,0,0,0,1.45,0A1,1,0,0,0,67.91,289.83Z" id="elak2h9uqlzzs" class="animable" style="transform-origin: 67.3985px 290.461px;"></path><path d="M406.26,326.84a.65.65,0,0,0,0-1.3A.65.65,0,0,0,406.26,326.84Z" id="elhcz9ok2m44" class="animable" style="transform-origin: 406.26px 326.19px;"></path><path d="M268.77,230.35a.65.65,0,0,0,0-1.3A.65.65,0,0,0,268.77,230.35Z" id="el20p0pit1px8" class="animable" style="transform-origin: 268.77px 229.7px;"></path><path d="M277.32,347.71a.65.65,0,0,0,0-1.3A.65.65,0,0,0,277.32,347.71Z" id="elzbai6zzjztf" class="animable" style="transform-origin: 277.32px 347.06px;"></path><path d="M245,261a.65.65,0,0,0,0-1.3A.65.65,0,0,0,245,261Z" id="ela72vpwj7u19" class="animable" style="transform-origin: 245px 260.35px;"></path><path d="M364.08,279.37a1.86,1.86,0,0,0,.1.2.29.29,0,0,0,.5,0,1.86,1.86,0,0,0,.1-.2C365.15,278.6,363.71,278.6,364.08,279.37Z" id="elhf1mxcw3psf" class="animable" style="transform-origin: 364.43px 279.253px;"></path><path d="M305.5,341.58c0,.07.07.13.1.19a.3.3,0,0,0,.51,0,1.14,1.14,0,0,0,.1-.19C306.58,340.81,305.14,340.81,305.5,341.58Z" id="elfdgeobfmpy" class="animable" style="transform-origin: 305.857px 341.457px;"></path><path d="M311.28,376.31a1.14,1.14,0,0,0,.1.19.29.29,0,0,0,.5,0,1.14,1.14,0,0,0,.1-.19C312.35,375.54,310.91,375.54,311.28,376.31Z" id="elb246emqa1s" class="animable" style="transform-origin: 311.63px 376.188px;"></path><path d="M400.68,322.88a.5.5,0,0,0,0-1A.5.5,0,0,0,400.68,322.88Z" id="elzflljs3lco" class="animable" style="transform-origin: 400.68px 322.38px;"></path><path d="M373.43,370.13a.7.7,0,0,0,1,0,1,1,0,0,0,.23-.94.75.75,0,0,0-1.44,0A1,1,0,0,0,373.43,370.13Z" id="els2ibs27dgt8" class="animable" style="transform-origin: 373.938px 369.495px;"></path><path d="M435.41,277a.7.7,0,0,0,1,0,1,1,0,0,0,.24-.94.75.75,0,0,0-1.44,0A1,1,0,0,0,435.41,277Z" id="elkxz1mwfiijh" class="animable" style="transform-origin: 435.925px 276.365px;"></path><path d="M225.23,302.45a.68.68,0,0,0,1,0,.91.91,0,0,0,.23-.93.75.75,0,0,0-1.44,0A.94.94,0,0,0,225.23,302.45Z" id="el56tu6pmu828" class="animable" style="transform-origin: 225.74px 301.825px;"></path></g></g></g><g id="freepik--Character--inject-37" class="animable" style="transform-origin: 262.501px 236.327px;"><path d="M410.14,316.23c-2.39.91-71.6,2.17-74.31.62-.29-.17-.21-3.23-1.23-11.13-.05-.37-1.63-1.84-4.09-3.91-9.26-7.76-31-24.11-31-24.11l34.54-30,33.47,32.9,8.71,8.56s28.27,15.27,31.07,17.28S412.52,315.31,410.14,316.23Z" style="fill: rgb(211, 118, 106); transform-origin: 355.309px 282.64px;" id="elu9n6fzf98rp" class="animable"></path><path d="M410.13,316.22c-2.38.93-71.59,2.18-74.3.63-.29-.17-.21-3.22-1.23-11.13-.05-.37-5.84-4.84-10.63-8.57L367.88,281l8.34,8.14s28.28,15.26,31.07,17.28S412.52,315.31,410.13,316.22Z" style="fill: #46FF27; transform-origin: 367.535px 299.291px;" id="elvjao3yx0x79" class="animable"></path><path d="M326.31,297a8.84,8.84,0,0,1,2.1,1.31,8.46,8.46,0,0,1,1.7,1.78,8.84,8.84,0,0,1-2.1-1.31A8.46,8.46,0,0,1,326.31,297Z" style="fill: rgb(38, 50, 56); transform-origin: 328.21px 298.545px;" id="eltr7pei1n9op" class="animable"></path><path d="M329,296.06a9.78,9.78,0,0,1,3.8,3.1,9.82,9.82,0,0,1-3.8-3.1Z" style="fill: rgb(38, 50, 56); transform-origin: 330.9px 297.61px;" id="elvwhj50kzdlh" class="animable"></path><path d="M331.66,295.12a9.17,9.17,0,0,1,2.1,1.31,8.51,8.51,0,0,1,1.7,1.79,8.87,8.87,0,0,1-2.1-1.32A8.72,8.72,0,0,1,331.66,295.12Z" style="fill: rgb(38, 50, 56); transform-origin: 333.56px 296.67px;" id="elv05oayu6yi" class="animable"></path><path d="M334.34,294.18a8.87,8.87,0,0,1,2.1,1.32,8.46,8.46,0,0,1,1.7,1.78,9.78,9.78,0,0,1-3.8-3.1Z" style="fill: rgb(38, 50, 56); transform-origin: 336.24px 295.73px;" id="eloakwbaatg2l" class="animable"></path><path d="M337,293.25a8.84,8.84,0,0,1,2.1,1.31,8.72,8.72,0,0,1,1.7,1.78,8.46,8.46,0,0,1-2.1-1.31A8.71,8.71,0,0,1,337,293.25Z" style="fill: rgb(38, 50, 56); transform-origin: 338.9px 294.795px;" id="elqglce3wrtdk" class="animable"></path><path d="M339.69,292.31a9.68,9.68,0,0,1,3.8,3.09,8.84,8.84,0,0,1-2.1-1.31A9,9,0,0,1,339.69,292.31Z" style="fill: rgb(38, 50, 56); transform-origin: 341.59px 293.855px;" id="elvkwr8oszjt" class="animable"></path><path d="M342.37,291.37a8.84,8.84,0,0,1,2.1,1.31,8.46,8.46,0,0,1,1.7,1.78,8.84,8.84,0,0,1-2.1-1.31A8.72,8.72,0,0,1,342.37,291.37Z" style="fill: rgb(38, 50, 56); transform-origin: 344.27px 292.915px;" id="elmlvso8ukmsp" class="animable"></path><path d="M345.05,290.43a9.78,9.78,0,0,1,3.8,3.1,8.87,8.87,0,0,1-2.1-1.32A8.46,8.46,0,0,1,345.05,290.43Z" style="fill: rgb(38, 50, 56); transform-origin: 346.95px 291.98px;" id="elkii5nn0a4af" class="animable"></path><path d="M347.72,289.49a9,9,0,0,1,2.11,1.31,9.33,9.33,0,0,1,1.7,1.79,9,9,0,0,1-2.11-1.31A9.33,9.33,0,0,1,347.72,289.49Z" style="fill: rgb(38, 50, 56); transform-origin: 349.625px 291.04px;" id="el0gltigtouwj" class="animable"></path><path d="M350.4,288.55a8.87,8.87,0,0,1,2.1,1.32,8.46,8.46,0,0,1,1.7,1.78,9.78,9.78,0,0,1-3.8-3.1Z" style="fill: rgb(38, 50, 56); transform-origin: 352.3px 290.1px;" id="el4h0nobdvtc4" class="animable"></path><path d="M353.08,287.62a8.84,8.84,0,0,1,2.1,1.31,8.46,8.46,0,0,1,1.7,1.78,8.84,8.84,0,0,1-2.1-1.31A8.46,8.46,0,0,1,353.08,287.62Z" style="fill: rgb(38, 50, 56); transform-origin: 354.98px 289.165px;" id="el2lghme33k44" class="animable"></path><path d="M355.76,286.68a8.84,8.84,0,0,1,2.1,1.31,8.72,8.72,0,0,1,1.7,1.78,9.87,9.87,0,0,1-3.8-3.09Z" style="fill: rgb(38, 50, 56); transform-origin: 357.66px 288.225px;" id="eluh45912vaz" class="animable"></path><path d="M358.43,285.74a8.64,8.64,0,0,1,2.1,1.31,8.46,8.46,0,0,1,1.7,1.78,8.84,8.84,0,0,1-2.1-1.31A9,9,0,0,1,358.43,285.74Z" style="fill: rgb(38, 50, 56); transform-origin: 360.33px 287.285px;" id="elwhdn5d4fib" class="animable"></path><path d="M361.11,284.8a9.17,9.17,0,0,1,2.1,1.31,8.51,8.51,0,0,1,1.7,1.79,8.87,8.87,0,0,1-2.1-1.32A8.72,8.72,0,0,1,361.11,284.8Z" style="fill: rgb(38, 50, 56); transform-origin: 363.01px 286.35px;" id="elaqxzhv6vtqt" class="animable"></path><path d="M363.79,283.86a8.87,8.87,0,0,1,2.1,1.32,8.72,8.72,0,0,1,1.7,1.78,9.78,9.78,0,0,1-3.8-3.1Z" style="fill: rgb(38, 50, 56); transform-origin: 365.69px 285.41px;" id="ely0rb4w47cr" class="animable"></path><path d="M366.46,282.92a10,10,0,0,1,3.81,3.1,8.71,8.71,0,0,1-2.11-1.31A9.05,9.05,0,0,1,366.46,282.92Z" style="fill: rgb(38, 50, 56); transform-origin: 368.365px 284.47px;" id="el5plw9ct1ot8" class="animable"></path><path d="M335.78,306.93a9.82,9.82,0,0,1,8.31,2.05,11.76,11.76,0,0,1,2.79,3.42,15.39,15.39,0,0,1,.9,2c.2.7.4,1.4.55,2.1-.36-.63-.65-1.28-1-1.9s-.7-1.22-1.12-1.78l-.61-.84c-.2-.29-.46-.52-.68-.79a12.41,12.41,0,0,0-1.47-1.43,12.63,12.63,0,0,0-3.56-2A13.17,13.17,0,0,0,335.78,306.93Z" style="fill: rgb(38, 50, 56); transform-origin: 342.055px 311.608px;" id="el5t5db1osldb" class="animable"></path><path d="M385,315.5a12.08,12.08,0,0,1,1.39-5.1,13,13,0,0,1,3.36-4.18,14,14,0,0,1,4.73-2.52,6.48,6.48,0,0,1,1.29-.35l1.3-.25c.89-.09,1.77-.14,2.64-.16-.85.25-1.71.39-2.53.64L396,304l-.61.19-.59.26-1.17.5c-.38.2-.74.42-1.11.62l-.56.31-.51.37a9.52,9.52,0,0,0-1,.76,14.88,14.88,0,0,0-3.32,3.79A17.24,17.24,0,0,0,385,315.5Z" style="fill: rgb(38, 50, 56); transform-origin: 392.355px 309.22px;" id="elv38h6vb8mk" class="animable"></path><path d="M368,278.76l-42.7,22.12s-44.47-40.26-48.55-40.56-63.91,40.3-94,40.43c-31.2.13-32.78-32.56-32.78-32.56l45.51-10.45c32.81-16.17,67-45.21,89.34-42.5C309.05,218.18,368,278.76,368,278.76Z" style="fill: rgb(38, 50, 56); transform-origin: 258.985px 257.971px;" id="elrs1yuhzqj3" class="animable"></path><path d="M357.56,273.12c-7.21,3.57-5.19,2.45-12.36,6.08-3.5,1.79-21.16,10.69-24.15,12.9a.08.08,0,0,0,.07.14c3.53-1.18,21-10.47,24.46-12.32,7.1-3.76,5-2.76,12.08-6.6A.11.11,0,0,0,357.56,273.12Z" style="fill: rgb(55, 71, 79); transform-origin: 339.371px 282.675px;" id="el4oqyb5n5asq" class="animable"></path><path d="M317.73,290.68c-8.34-7.36-35.69-31.32-36.8-32.21a14.7,14.7,0,0,0-2.85-2.13,3,3,0,0,0-2.63.21c-1.27.59-2.5,1.24-3.76,1.85l-7.4,3.61c-9.56,4.67-19.07,9.46-28.71,14-9.27,4.35-15.89,8.43-25.57,11.77a145.16,145.16,0,0,1-29.7,7.08c-1.24.15-2.49.28-3.74.4-.1,0-.09.15,0,.14a119.3,119.3,0,0,0,29.23-5.43c9.59-2.95,16.1-6.78,25.2-11,9.44-4.34,18.75-9,28.05-13.62,4.92-2.44,9.82-4.9,14.74-7.31,1.12-.55,2.71-1.74,4-1.15a7,7,0,0,1,1.47,1.08l1.64,1.37c2.11,1.75,35.63,30.63,36.73,31.46C317.7,290.86,317.82,290.75,317.73,290.68Z" style="fill: rgb(55, 71, 79); transform-origin: 247.13px 275.766px;" id="ell4oee6favbq" class="animable"></path><path d="M149.84,268.19s-5.1,29.52,9.66,41.11,122.89,10.2,139.29,4.9,16.92-31.78-1-37.91c-17.06-5.84-89.64-8.67-91.43-9.39-.45-.18,6.44-4.3,6.41-4.56l-16.52-5Z" style="fill: rgb(38, 50, 56); transform-origin: 230.074px 287.747px;" id="eloqm2njngakp" class="animable"></path><path d="M172.25,267.45c0-.13-.22-.09-.22,0a14.6,14.6,0,0,1-3.41,9.38c-2.51,2.9-6.22,4.52-9.58,6.22-.32.16-.07.67.26.57a29.35,29.35,0,0,0,5.93-2.56,14.36,14.36,0,0,0,4.46-3.7A12.79,12.79,0,0,0,172.25,267.45Z" style="fill: rgb(55, 71, 79); transform-origin: 165.651px 275.5px;" id="elv4lnzsrqv3j" class="animable"></path><path d="M205.16,263.79c-.75-1-1.56-1.87-2.34-2.8-1.85-2.2-3.71-4.41-5.65-6.53-.18-.2-.54.09-.37.31,1.31,1.7,2.69,3.35,4,5l2.1,2.54a16.15,16.15,0,0,1,2,2.49c.51.95-.16,1.75-1.14,1.86a3.47,3.47,0,0,1-2.36-.87,31.2,31.2,0,0,1-4-4.28c-.78-.88-1.56-1.75-2.35-2.62s-1.73-1.79-2.57-2.71c-.06-.05-.16,0-.11.09.73,1,1.41,2.06,2.14,3.06s1.48,2,2.23,3,1.46,1.85,2.23,2.75a9,9,0,0,0,2.25,2c1.4.82,3.84,1,4.59-.81A2.54,2.54,0,0,0,205.16,263.79Z" style="fill: rgb(55, 71, 79); transform-origin: 199.13px 261.034px;" id="elh7uuvb2qljq" class="animable"></path><path d="M296.55,314.3c-5.65.1-11.3.43-16.95.55s-11.2.15-16.81.1q-16.88-.15-33.74-1.31c-11.35-.79-23.59-1.92-34.86-3.48-5.39-.74-10.86-1.37-16.19-2.51a25.61,25.61,0,0,1-12.77-6.53c-7.3-7.08-10.14-17.49-11.31-27.44-.15-1.33-.28-2.67-.39-4a.07.07,0,1,0-.14,0c.66,10.2,2.25,20.83,8.66,29a25.5,25.5,0,0,0,10.45,8.11c5.05,2,10.65,2.5,16,3.22,11.32,1.54,23.61,2.72,35,3.61s22.94,1.44,34.43,1.61,23,0,34.45-.56c1.41-.07,2.8-.15,4.2-.27C296.63,314.42,296.63,314.3,296.55,314.3Z" style="fill: rgb(55, 71, 79); transform-origin: 225.002px 292.451px;" id="elb0kh23e8dh" class="animable"></path><path d="M260.93,270.91c-3.55-.52-7.1-1-10.68-1.41s-7.22-.69-10.84-1c-7.15-.61-14.33-1.15-21.5-1.49-4.07-.19-8.15-.21-12.22-.16a.1.1,0,0,0,0,.2c7.17.65,14.35,1.11,21.53,1.58s14.33,1.11,21.48,1.79c4.05.39,8.11.69,12.17,1C261.17,271.46,261.23,271,260.93,270.91Z" style="fill: rgb(55, 71, 79); transform-origin: 233.359px 269.125px;" id="el9gpbb46xlwt" class="animable"></path><path d="M213.6,262a57.08,57.08,0,0,0-8.23,4.41,66.22,66.22,0,0,0-7.62,5.33c-.07.06,0,.14.09.11,2.79-1.29,5.48-2.91,8.14-4.46a74.78,74.78,0,0,0,7.79-5C214,262.23,213.84,261.89,213.6,262Z" style="fill: rgb(55, 71, 79); transform-origin: 205.802px 266.918px;" id="elshgfht33ekk" class="animable"></path><path d="M176,209.11c10.23,17.56,33.18,36.68,41.83,36.87,8.31.19,24.8-15.27,30.9-26.88,1.76-3.35-18.25-15.67-20.82-12.54-5.25,6.38-12.34,13.56-13.44,13.41-3.91-.55-19.62-12.33-32.39-19C170,194.75,171.91,202.11,176,209.11Z" style="fill: rgb(211, 118, 106); transform-origin: 210.856px 222.304px;" id="eldcao8bfvl54" class="animable"></path><path d="M253.16,206.09c.93-7.75,0-9.88,4.24-16,2.79-4,1.42-7.53-3.09-5.18-7.39,3.84-10.7,13.59-10.87,17.3Z" style="fill: rgb(211, 118, 106); transform-origin: 251.142px 195.123px;" id="el0hj2xx5v3f2" class="animable"></path><polygon points="259.65 166.13 238.21 154.5 226.54 195.92 247.72 205.32 259.65 166.13" style="fill: #46FF27; transform-origin: 243.095px 179.91px;" id="el886d7l3byde" class="animable"></polygon><path d="M257.08,166.27l-18.21-9.69-.62,1.32-9.2,33.28a39.82,39.82,0,0,1,4.5,4.2c1.77,2,7,8.65,12.32,8.55Z" style="fill: rgb(255, 255, 255); transform-origin: 243.065px 180.256px;" id="elf43fs8j0pg" class="animable"></path><path d="M256.47,168.42s-4.77-1.62-7.27-3.64-5-4.29-6.92-5.19-4-1.85-4-1.85l.55-1.16,18.21,9.69Z" style="fill: rgb(235, 235, 235); transform-origin: 247.66px 162.5px;" id="elgd5s8012rac" class="animable"></path><polygon points="211.81 211.01 247.31 206.65 259.65 166.13 222.42 168.27 211.81 211.01" style="fill: #46FF27; transform-origin: 235.73px 188.57px;" id="el1t7jxnbdu9l" class="animable"></polygon><path d="M243.91,226s6.85-8,8.66-16.19c1.25-5.65,2.6-18.23-10-30-3-2.79-9.24-4.65-6,1.69,2.29,4.5,5.11,6.66,6,9.52,0,0-8.23-1.42-10.91,1.69a75.17,75.17,0,0,0-6.43,8.62,16.68,16.68,0,0,0,1.51,1.34s-2.23,3.14-1.57,9Z" style="fill: rgb(211, 118, 106); transform-origin: 239.195px 201.615px;" id="el6o5t4apu2w2" class="animable"></path><path d="M252.91,204.25c-1.46-2.66-4.63-8.25-8.81-11.91-4.65-4.08-14.7-10.67-17.67-7.21-2.18,2.54,1.43,5.39,1.43,5.39s-4.73-1.85-6.19.88c-1.34,2.48,1.59,4.52,1.59,4.52s-3.06-.63-3.89,2c-1,3.17,5.59,4,7.36,8.06C227.12,206.9,252.91,204.25,252.91,204.25Z" style="fill: rgb(211, 118, 106); transform-origin: 236.089px 195.167px;" id="ela1494vgzp9t" class="animable"></path><path d="M240.61,198A24.56,24.56,0,0,0,228,190.48c-.12,0-.21.06-.1.1A60.27,60.27,0,0,1,240.57,198S240.63,198,240.61,198Z" style="fill: rgb(38, 50, 56); transform-origin: 234.232px 194.24px;" id="elo2ce41jyjtk" class="animable"></path><path d="M236.36,202.54c-1.73-1.81-7.45-5.83-13.05-6.72-.12,0-.2.07-.09.11a65.52,65.52,0,0,1,13.11,6.65A0,0,0,1,0,236.36,202.54Z" style="fill: rgb(38, 50, 56); transform-origin: 229.764px 199.2px;" id="elqxvbm46y6fk" class="animable"></path><path d="M192.76,234l9.36-23.13s-15.77-9.56-25-12.73c-5.16-1.78-6,1.29-4,5.8C180.1,219.68,192.76,234,192.76,234Z" style="fill: #46FF27; transform-origin: 187.12px 215.813px;" id="elr9vgswpeqxk" class="animable"></path><path d="M173.51,197.77l-.33.15a1.38,1.38,0,0,1,.47.92,1.42,1.42,0,0,1-1.29,1.51h-.22a1.87,1.87,0,0,0,0,.33.86.86,0,0,0,.23,0,1.74,1.74,0,0,0,1.6-1.87A1.67,1.67,0,0,0,173.51,197.77Zm8.43,5a1.74,1.74,0,1,0,1.87,1.6A1.74,1.74,0,0,0,181.94,202.79Zm.25,3.13a1.4,1.4,0,1,1,1.28-1.51A1.41,1.41,0,0,1,182.19,205.92Zm10,2.05a1.74,1.74,0,1,0,.27,3.47,1.74,1.74,0,1,0-.27-3.47Zm.24,3.13a1.4,1.4,0,1,1,1.29-1.5A1.41,1.41,0,0,1,192.45,211.1Zm2.44,11.15a1.74,1.74,0,0,0,.27,3.47,1.71,1.71,0,0,0,1.18-.61h0l.4-1a1.29,1.29,0,0,0,0-.28A1.74,1.74,0,0,0,194.89,222.25Zm.24,3.13a1.4,1.4,0,1,1,1.29-1.51A1.4,1.4,0,0,1,195.13,225.38Zm-9.41-7.87A1.73,1.73,0,1,0,186,221a1.73,1.73,0,1,0-.26-3.46Zm.24,3.12a1.39,1.39,0,1,1,1.29-1.5A1.41,1.41,0,0,1,186,220.63Z" style="fill: rgb(255, 255, 255); transform-origin: 184.43px 211.738px;" id="elusgztaj79ds" class="animable"></path><path d="M198.15,210.18a165,165,0,0,0-8.24,19.42s.13.11.14.07c2.55-5.17,6.89-15.82,8.32-19.4C198.4,210.21,198.19,210.11,198.15,210.18Z" style="fill: rgb(38, 50, 56); transform-origin: 194.141px 219.917px;" id="elwm8clt4b4y" class="animable"></path><g id="elg29xcdrpftj"><path d="M198.39,220.06,192.76,234s-12.66-14.29-19.65-30.06c-1.2-2.72-1.36-4.9-.17-5.82Z" style="opacity: 0.1; transform-origin: 185.257px 216.06px;" class="animable" id="eloihi5x5ifer"></path></g><path d="M209,258.11l-60.83,19.63c-.25-1.28-.62-40.42,2.83-55.71,4.41-19.61,8.49-22.07,10.91-23.64,3.09-2,9.24-2.82,10.83-2.48,1.79.37,9.07,8.15,12.47,14.31C192.05,222.59,209.65,257.1,209,258.11Z" style="fill: #46FF27; transform-origin: 178.518px 236.788px;" id="elmndu40t579d" class="animable"></path><path d="M182.31,252.3a1.74,1.74,0,1,0,.27,3.46,1.74,1.74,0,1,0-.27-3.46Zm.25,3.12a1.39,1.39,0,1,1,1.28-1.5A1.39,1.39,0,0,1,182.56,255.42Zm-18.69,12.14a1.74,1.74,0,1,0,1.87,1.6A1.74,1.74,0,0,0,163.87,267.56Zm.24,3.13a1.4,1.4,0,1,1,1.29-1.5A1.41,1.41,0,0,1,164.11,270.69Zm-1.24-16.17a1.74,1.74,0,0,0,.26,3.47,1.74,1.74,0,1,0-.26-3.47Zm.24,3.13a1.4,1.4,0,0,1-.22-2.79,1.4,1.4,0,1,1,.22,2.79Zm9-60.43a1.74,1.74,0,1,0,1.86,1.6A1.74,1.74,0,0,0,172.12,197.22Zm.24,3.13a1.4,1.4,0,1,1,1.29-1.51A1.41,1.41,0,0,1,172.36,200.35Zm2.46,11.46a1.73,1.73,0,1,0,1.86,1.6A1.73,1.73,0,0,0,174.82,211.81Zm.24,3.13a1.4,1.4,0,1,1,1.29-1.5A1.41,1.41,0,0,1,175.06,214.94Zm1.41,10.3a1.75,1.75,0,0,0-1.6,1.87,1.73,1.73,0,1,0,1.6-1.87Zm.24,3.12a1.39,1.39,0,1,1,1.28-1.49A1.39,1.39,0,0,1,176.71,228.36ZM164.57,205.7a1.74,1.74,0,1,0,1.86,1.6A1.74,1.74,0,0,0,164.57,205.7Zm.24,3.13a1.4,1.4,0,1,1,1.28-1.5A1.4,1.4,0,0,1,164.81,208.83Zm-14.14,26.3a1.72,1.72,0,0,0-1.57,1.4,0,0,0,0,0,0,0c0,.14,0,.29,0,.45a1.74,1.74,0,1,0,1.6-1.87Zm.24,3.13a1.4,1.4,0,1,1,1.29-1.5A1.4,1.4,0,0,1,150.91,238.26Zm9.41,3.67a1.74,1.74,0,1,0,1.87,1.6A1.73,1.73,0,0,0,160.32,241.93Zm.24,3.13a1.4,1.4,0,1,1,1.29-1.51A1.39,1.39,0,0,1,160.56,245.06Zm9.94,2.48a1.74,1.74,0,1,0,1.86,1.6A1.75,1.75,0,0,0,170.5,247.54Zm.24,3.13a1.4,1.4,0,1,1,1.28-1.5A1.4,1.4,0,0,1,170.74,250.67Zm-18.86,10.84a1.74,1.74,0,1,0,1.87,1.59A1.75,1.75,0,0,0,151.88,261.51Zm.24,3.12a1.39,1.39,0,1,1,1.29-1.5A1.4,1.4,0,0,1,152.12,264.63Zm.82,10.56a1.74,1.74,0,0,0-1.59,1.53l.36-.12a1.4,1.4,0,0,1,2.28-.73l.36-.11A1.69,1.69,0,0,0,152.94,275.19Zm13.82-55.72a1.76,1.76,0,0,0-1.6,1.87,1.73,1.73,0,1,0,1.6-1.87Zm.24,3.13a1.4,1.4,0,1,1,1.29-1.5A1.4,1.4,0,0,1,167,222.6Zm-7.13,4.73a1.73,1.73,0,1,0,1.86,1.59A1.74,1.74,0,0,0,159.87,227.33Zm.24,3.12a1.41,1.41,0,0,1-1.51-1.29,1.4,1.4,0,0,1,2.8-.22A1.42,1.42,0,0,1,160.11,230.45ZM151.48,249a1.74,1.74,0,1,0,1.86,1.6A1.73,1.73,0,0,0,151.48,249Zm.24,3.13a1.4,1.4,0,1,1,1.29-1.51A1.4,1.4,0,0,1,151.72,252.14ZM179.79,240a1.74,1.74,0,1,0,1.87,1.6A1.74,1.74,0,0,0,179.79,240Zm.24,3.13a1.4,1.4,0,1,1,1.29-1.5A1.41,1.41,0,0,1,180,243.15Zm10.62.81a1.74,1.74,0,1,0,1.86,1.6A1.73,1.73,0,0,0,190.65,244Zm.24,3.13a1.4,1.4,0,1,1,1.28-1.5A1.39,1.39,0,0,1,190.89,247.09ZM175.4,260.16a1.74,1.74,0,1,0,1.87,1.6A1.73,1.73,0,0,0,175.4,260.16Zm.24,3.13a1.4,1.4,0,1,1,1.29-1.5A1.4,1.4,0,0,1,175.64,263.29Zm18.79-6.17a1.74,1.74,0,0,0,.27,3.47,1.75,1.75,0,0,0,1.6-1.87A1.73,1.73,0,0,0,194.43,257.12Zm.24,3.13a1.4,1.4,0,1,1,1.29-1.51A1.4,1.4,0,0,1,194.67,260.25ZM182.4,205.88l-.21,0a1.39,1.39,0,0,1-1.33-2.08c-.08-.09-.15-.19-.22-.28a1.69,1.69,0,0,0-.3,1.09,1.75,1.75,0,0,0,1.87,1.61,1.89,1.89,0,0,0,.41-.1C182.55,206.07,182.48,206,182.4,205.88Zm-26.05,8a1.74,1.74,0,1,0,1.87,1.59A1.74,1.74,0,0,0,156.35,213.89Zm.24,3.12a1.39,1.39,0,1,1,1.29-1.51A1.4,1.4,0,0,1,156.59,217Zm29.13.5A1.73,1.73,0,1,0,186,221a1.73,1.73,0,1,0-.26-3.46Zm.24,3.12a1.39,1.39,0,1,1,1.29-1.5A1.41,1.41,0,0,1,186,220.63Zm-16.53,13.05a1.74,1.74,0,1,0,1.86,1.6A1.75,1.75,0,0,0,169.43,233.68Zm.24,3.13a1.4,1.4,0,1,1,1.28-1.5A1.4,1.4,0,0,1,169.67,236.81Zm17.07-6a1.74,1.74,0,1,0,1.87,1.59A1.74,1.74,0,0,0,186.74,230.78Zm.24,3.12a1.39,1.39,0,1,1,1.29-1.5A1.4,1.4,0,0,1,187,233.9Zm14.53,13.94a1.74,1.74,0,1,0,1.87,1.6A1.75,1.75,0,0,0,201.51,247.84Zm.24,3.13a1.4,1.4,0,1,1,1.29-1.51A1.41,1.41,0,0,1,201.75,251Zm-2.49-13.84a1.39,1.39,0,1,1-.94-1.87c-.07-.12-.13-.25-.19-.37a1,1,0,0,0-.3,0,1.74,1.74,0,1,0,.27,3.46,1.76,1.76,0,0,0,1.35-.84Z" style="fill: rgb(255, 255, 255); transform-origin: 176.243px 236.968px;" id="ely0oiktadbrm" class="animable"></path><path d="M151.4,207.48c-19.11,15.76-40.45,44.28-37.17,52.18,3.66,8.8,31-13.46,30.36-14.76-.53-1.11,6.58-16.49,14.7-32.13S156.13,203.59,151.4,207.48Z" style="fill: rgb(211, 118, 106); transform-origin: 138.021px 232.254px;" id="elad561ydliwc" class="animable"></path><path d="M129.27,222.93l23.85,7.32s8.16-16.54,10.52-26c1.32-5.3-1.81-5.9-6.13-3.52C142.4,209.07,129.27,222.93,129.27,222.93Z" style="fill: #46FF27; transform-origin: 146.608px 214.824px;" id="el7dn6t4kaohx" class="animable"></path><path d="M148.75,220.86a1.74,1.74,0,1,0,1.86,1.6A1.74,1.74,0,0,0,148.75,220.86ZM149,224a1.4,1.4,0,1,1,1.29-1.5A1.39,1.39,0,0,1,149,224Zm-.61-17.46-.36.26a1.38,1.38,0,0,1,1.14,1.25,1.4,1.4,0,1,1-2.79.22,1.11,1.11,0,0,1,0-.26,2.11,2.11,0,0,0-.35.26v0a1.74,1.74,0,1,0,3.47-.27A1.71,1.71,0,0,0,148.38,206.53Zm-17.66,16.21a1.65,1.65,0,0,0-.92.35l.42.14a1.16,1.16,0,0,1,.52-.15,1.38,1.38,0,0,1,1.33.71l.42.12A1.71,1.71,0,0,0,130.72,222.74ZM155.35,202h.08a1.68,1.68,0,0,0,1.34-.82C156.29,201.44,155.82,201.7,155.35,202Zm-15.76,13.19a1.74,1.74,0,1,0,1.87,1.59A1.74,1.74,0,0,0,139.59,215.18Zm.24,3.12a1.39,1.39,0,1,1,1.29-1.5A1.4,1.4,0,0,1,139.83,218.3Zm16.52-4.41a1.74,1.74,0,1,0,1.87,1.59A1.74,1.74,0,0,0,156.35,213.89Zm.24,3.12a1.39,1.39,0,1,1,1.29-1.51A1.4,1.4,0,0,1,156.59,217Z" style="fill: rgb(255, 255, 255); transform-origin: 144.018px 212.758px;" id="el6r2ik9k8t59" class="animable"></path><path d="M153.44,226.24a164.67,164.67,0,0,0-20.07-6.53s-.09.14-.05.15c5.36,2.09,16.35,5.49,20,6.6C153.43,226.48,153.5,226.27,153.44,226.24Z" style="fill: rgb(38, 50, 56); transform-origin: 143.386px 223.086px;" id="el0gcubbxc7m5r" class="animable"></path><path d="M150.21,229.36c1,.22,2,.46,3,.71l-.22.1c1-2.57,2.16-5.1,3.34-7.61s2.42-5,3.77-7.41c-.95,2.6-2,5.16-3.17,7.69s-2.33,5-3.6,7.49l-.08.15-.15,0C152.11,230.09,151.16,229.73,150.21,229.36Z" style="fill: rgb(38, 50, 56); transform-origin: 155.155px 222.815px;" id="elyilwwt5hjcc" class="animable"></path><path d="M157.82,220.21a7.35,7.35,0,0,1,1-1.44,11.29,11.29,0,0,1,1.26-1.23,3,3,0,0,1-.39.8,6,6,0,0,1-.53.71A5.65,5.65,0,0,1,157.82,220.21Z" style="fill: rgb(38, 50, 56); transform-origin: 158.95px 218.875px;" id="elvx4eir2qr3" class="animable"></path><path d="M114.69,260.49c4,5.53,14.68,6.43,41.35,11.2,3.69.66,15.35-24.12,11.45-25-4.92-1.14-24.25-4.52-25.69-4.58C129.61,241.5,112,256.73,114.69,260.49Z" style="fill: rgb(211, 118, 106); transform-origin: 141.346px 256.898px;" id="el991ow3jj4n" class="animable"></path><path d="M162.15,245.54s11.29,1.51,17,4.15a40.16,40.16,0,0,1,14.71,12.42c4.16,5.68,10.27,22.27,5.8,24.86-4,2.35-9.44-14.92-9.44-14.92s8.4,16.7,3,18.64-10.51-18.48-10.51-18.48,8.25,17.36,2.37,18.47c-4.44.84-10.12-17.39-10.12-17.39s7,15,2.46,16c-5,1.17-11.3-15.33-11.3-15.33-12,.76-18-3.77-21.88-7.51C143.29,265.59,162.15,245.54,162.15,245.54Z" style="fill: rgb(211, 118, 106); transform-origin: 172.715px 268.18px;" id="el5hlvcnzhllo" class="animable"></path><path d="M187.66,266.08c1.06,1.93,2.14,3.87,3,5.89s1.69,4.06,2.39,6.15a38.81,38.81,0,0,1,1.92,8.37c-.94-5-4-12.29-4.87-14.3s-1.67-4.06-2.55-6.08C187.56,266.06,187.64,266,187.66,266.08Z" style="fill: rgb(38, 50, 56); transform-origin: 191.26px 276.266px;" id="elbss7cy09r0c" class="animable"></path><path d="M180.33,269.14c1.25,2.52,2.57,5,3.71,7.55s2,5.09,2.92,7.72c.07.21-.06.18-.14,0-1-2.6-2.23-4.91-3.31-7.49s-2.07-5.21-3.24-7.73A0,0,0,0,1,180.33,269.14Z" style="fill: rgb(38, 50, 56); transform-origin: 183.625px 276.848px;" id="elytcwz0rafli" class="animable"></path><path d="M173.57,270.63a62.91,62.91,0,0,1,4.78,12c.07.2-.1.15-.18-.06-1.52-4-2.68-7.16-4.73-11.84C173.4,270.63,173.52,270.55,173.57,270.63Z" style="fill: rgb(38, 50, 56); transform-origin: 175.899px 276.677px;" id="el9ilh5wwb5" class="animable"></path><path d="M130.47,244.6c2.35-1.12,8.92-3.62,14.89-2,.07,0,.06.11,0,.1-5-.62-12.48,1.09-14.84,2A.05.05,0,0,1,130.47,244.6Z" style="fill: rgb(38, 50, 56); transform-origin: 137.924px 243.387px;" id="elgljbsdp5o8c" class="animable"></path><path d="M174.29,209.39c-3.47,1.39-10.47-3.16-13.58-7.24-.21-.28-.23-3.57-.45-7.56-.14-2.42-.35-5.12-.72-7.56-.08-.5,15.89,1.4,15.89,1.4a39.66,39.66,0,0,0-.05,9.6,4.78,4.78,0,0,0,.26,1s0,.1,0,.16C176.28,201,177.63,208,174.29,209.39Z" style="fill: rgb(211, 118, 106); transform-origin: 167.999px 198.296px;" id="ely3gbk564lgh" class="animable"></path><path d="M160.49,187c1.34,4,5.43,13.62,13.63,12.56a9.12,9.12,0,0,0,1.56-.32c0-.07,0-.12,0-.17a7,7,0,0,1-.27-1,39.55,39.55,0,0,1,.06-9.62S163.91,187.05,160.49,187Z" style="fill: rgb(38, 50, 56); transform-origin: 168.085px 193.321px;" id="elambclq8nqgp" class="animable"></path><path d="M155.94,167.76c-1.43,5.56,2.19,21.3,6.25,24.66,5.9,4.87,15.19,5,19.24-2.06,3.93-6.79-1.15-27.21-5.65-30.23C169.14,155.69,158.05,159.53,155.94,167.76Z" style="fill: rgb(211, 118, 106); transform-origin: 169.23px 177.077px;" id="elu2a5abj0j28" class="animable"></path><path d="M171.91,176.75s-.07.07,0,.11c.31,1,.49,2.29-.37,2.89,0,0,0,.07,0,.06C172.63,179.34,172.37,177.69,171.91,176.75Z" style="fill: rgb(38, 50, 56); transform-origin: 171.924px 178.28px;" id="elhj9miocfa8i" class="animable"></path><path d="M170.68,175.9c-1.72.32-1,3.74.64,3.45S172.13,175.63,170.68,175.9Z" style="fill: rgb(38, 50, 56); transform-origin: 170.956px 177.626px;" id="elpblcbo21d1h" class="animable"></path><path d="M177.86,175.45s.09,0,.1.08c.21,1.07.62,2.26,1.66,2.4a0,0,0,0,1,0,.06C178.41,178.08,177.88,176.5,177.86,175.45Z" style="fill: rgb(38, 50, 56); transform-origin: 178.74px 176.722px;" id="el65shz5z6xa" class="animable"></path><path d="M178.56,174.13c1.68-.51,2.58,2.89,1,3.36S177.15,174.56,178.56,174.13Z" style="fill: rgb(38, 50, 56); transform-origin: 179.11px 175.806px;" id="elun0prqeauh" class="animable"></path><path d="M169,174a13.15,13.15,0,0,0,1.23-.76c.46-.29.87-.48,1.1-1a.75.75,0,0,0-.31-.85,1.85,1.85,0,0,0-1.85.21,2.71,2.71,0,0,0-1.28,1.47A.8.8,0,0,0,169,174Z" style="fill: rgb(38, 50, 56); transform-origin: 169.613px 172.654px;" id="elpkfa9lx401q" class="animable"></path><path d="M179.78,172.06a13.88,13.88,0,0,1-1.44.07,2.42,2.42,0,0,1-1.48-.22.74.74,0,0,1-.22-.88,1.83,1.83,0,0,1,1.65-.87,2.74,2.74,0,0,1,1.88.51A.79.79,0,0,1,179.78,172.06Z" style="fill: rgb(38, 50, 56); transform-origin: 178.517px 171.155px;" id="elg6csvbls9tn" class="animable"></path><path d="M171.91,186.72c.22.28.44.67.82.75a2.88,2.88,0,0,0,1.2-.12,0,0,0,0,1,0,.06,1.48,1.48,0,0,1-1.45.41,1.16,1.16,0,0,1-.72-1.07C171.79,186.69,171.88,186.68,171.91,186.72Z" style="fill: rgb(38, 50, 56); transform-origin: 172.845px 187.283px;" id="eljki392uw9e" class="animable"></path><path d="M172.75,183.58a3.68,3.68,0,0,0,2.77,1.07,4.51,4.51,0,0,0,1.31-.23.85.85,0,0,0,.24-.09l.23-.08a.29.29,0,0,0,.16-.29h0a.42.42,0,0,0,0-.1h0l0-.09c-.16-.82-.52-2.05-.52-2.05.33.08,2,.43,1.89,0a55.82,55.82,0,0,0-3.84-10.63c-.06-.11-.23,0-.19.07.83,3.39,2.24,6.61,3.13,10a6.46,6.46,0,0,0-1.82-.13c-.11.06.73,2.35.77,2.73a.06.06,0,0,1,0,0,5.12,5.12,0,0,1-4-.33C172.73,183.42,172.67,183.51,172.75,183.58Z" style="fill: rgb(38, 50, 56); transform-origin: 175.775px 177.849px;" id="elio78o8ajpoh" class="animable"></path><path d="M161,175.76c1.13-3-.42-8.11,1.14-9.42,3.37-2.82,9.86,3.06,14.46,3.25,4.45.19,6-2.62,5.37-6.27s-3.66-6.18-8.63-7.1a18.79,18.79,0,0,0-12.55,2.51s1.19-1.77.79-2.34-2.65,1.08-3.34,1.79a6.88,6.88,0,0,0-1.17,2.11,7.1,7.1,0,0,0-2-.28,4.22,4.22,0,0,0-2.69,1.08c-.09.27,1.53.53,2.66.63,0,0-2.22,2.74-2.26,5.15s3.3,14,4.19,14.13C158.08,181.2,160.52,177,161,175.76Z" style="fill: rgb(38, 50, 56); transform-origin: 167.24px 168.508px;" id="el1ourk0ikfnk" class="animable"></path><path d="M155.45,161.44s.1,0,.06.07a7.59,7.59,0,0,0-2.53,3.32,9.39,9.39,0,0,0-.23,5c.59,3.19,2,6.11,3.27,9.08,0,.09-.11.15-.15.06a33.54,33.54,0,0,1-3.54-9.78C151.92,166.25,152.7,163,155.45,161.44Z" style="fill: rgb(38, 50, 56); transform-origin: 154.124px 170.227px;" id="el0zrhl7bxfj8" class="animable"></path><path d="M162,165.17a10.82,10.82,0,0,1,4,.41,15.36,15.36,0,0,1,3.4,1.84,15.42,15.42,0,0,0,8.14,2.55,0,0,0,1,1,0,.06,13.47,13.47,0,0,1-7.59-1.92,35.31,35.31,0,0,0-3.53-2,13.93,13.93,0,0,0-4.45-.68A.12.12,0,0,1,162,165.17Z" style="fill: rgb(38, 50, 56); transform-origin: 169.697px 167.588px;" id="elxkkodxfxrlc" class="animable"></path><path d="M163.56,157.56a21.09,21.09,0,0,1,5.78-1.68,16.69,16.69,0,0,1,5.77,0c3.28.66,6.24,2.87,6.89,6.29a7.19,7.19,0,0,1-.86,5.11c-.06.11-.21,0-.16-.09a7.45,7.45,0,0,0-1.38-8.81c-2.62-2.44-6.41-2.76-9.81-2.34a30.26,30.26,0,0,0-6.22,1.54S163.55,157.56,163.56,157.56Z" style="fill: rgb(38, 50, 56); transform-origin: 172.852px 161.477px;" id="elvc6gc25goiq" class="animable"></path><path d="M169.41,183.46a5.22,5.22,0,1,1,4.71-6.76h0a5.22,5.22,0,0,1-4.71,6.76Zm-.51-9.73a4.18,4.18,0,0,0-1.1.2,4.51,4.51,0,1,0,1.1-.2Z" style="fill: #46FF27; transform-origin: 169.135px 178.247px;" id="eljjhxvalkc6b" class="animable"></path><path d="M181.21,181.38c-2,.11-3.91-1.84-4.37-4.53a6.21,6.21,0,0,1,.47-3.78,3.25,3.25,0,0,1,5.49-.94,6.29,6.29,0,0,1,1.7,3.41c.48,2.84-.84,5.44-2.95,5.8A2.09,2.09,0,0,1,181.21,181.38Zm-1-9.67-.26,0a2.77,2.77,0,0,0-2,1.64,5.6,5.6,0,0,0-.42,3.36c.43,2.45,2.17,4.21,3.91,3.92s2.8-2.54,2.38-5a5.59,5.59,0,0,0-1.5-3A2.85,2.85,0,0,0,180.17,171.71Z" style="fill: #46FF27; transform-origin: 180.665px 176.193px;" id="elnbu5sxkdyh" class="animable"></path><path d="M174.05,177.32l-.53-.45c.67-.79,2.32-2,3.81-.85l-.43.56C175.57,175.56,174.11,177.25,174.05,177.32Z" style="fill: #46FF27; transform-origin: 175.425px 176.434px;" id="el7kl8h1do3v9" class="animable"></path><path d="M152.4,182.57l-.66-.21c.1-.31,1-3,2.5-3.55s9.71-1.2,10.11-1.23l.05.69a91.47,91.47,0,0,0-9.94,1.2C153.48,179.81,152.64,181.82,152.4,182.57Z" style="fill: #46FF27; transform-origin: 158.07px 180.075px;" id="elyhrj79zuwod" class="animable"></path><path d="M159.92,180.53s-3.92-4.89-6.16-3.46.93,8.68,3.73,9.52a2.78,2.78,0,0,0,3.62-1.73Z" style="fill: rgb(211, 118, 106); transform-origin: 157.056px 181.788px;" id="elvelrv15rm8r" class="animable"></path><path d="M154.72,179.13a0,0,0,0,0,0,.07c2,.65,3.09,2.36,3.91,4.16a1.53,1.53,0,0,0-2.32-.27c-.05,0,0,.11.06.1a1.72,1.72,0,0,1,1.92.47,8.58,8.58,0,0,1,1,1.46c.1.17.4.06.32-.14v0C159.47,182.5,157.35,179.2,154.72,179.13Z" style="fill: rgb(38, 50, 56); transform-origin: 157.172px 182.167px;" id="ella6uicrnipk" class="animable"></path></g><g id="freepik--Shoes--inject-37" class="animable" style="transform-origin: 331.775px 430.547px;"><path d="M407.57,444.26c-2.33.65-68.09-2.75-70.51-4.46-1.13-.79-1-14.81-.53-29.58l42.78,2.08-.59,7.71s24.59,12.56,27,14.72S409.91,443.61,407.57,444.26Z" style="fill: #46FF27; transform-origin: 372.426px 427.281px;" id="el88nlpwh4k74" class="animable"></path><path d="M406.77,441.58c-11-.84-55.49-3.19-66.44-3.18-.09,0-.09.06,0,.07,10.89,1.07,55.39,3.06,66.43,3.29C407,441.77,407,441.6,406.77,441.58Z" style="fill: rgb(38, 50, 56); transform-origin: 373.602px 440.08px;" id="elq7dv6vz1tik" class="animable"></path><path d="M380.4,417.64c-4.29-1-9.63-.64-13.11,2.28-.13.11,0,.3.17.26a61,61,0,0,1,12.9-2A.27.27,0,0,0,380.4,417.64Z" style="fill: rgb(38, 50, 56); transform-origin: 373.943px 418.661px;" id="el4euq4ih8ce" class="animable"></path><path d="M383.43,419.69c-4.29-1-9.63-.64-13.1,2.27-.14.12,0,.31.17.27a61,61,0,0,1,12.89-2A.27.27,0,0,0,383.43,419.69Z" style="fill: rgb(38, 50, 56); transform-origin: 376.976px 420.711px;" id="elb81jl1jqbi9" class="animable"></path><path d="M386.47,421.74c-4.3-1-9.64-.65-13.11,2.27-.14.12,0,.31.17.27a61,61,0,0,1,12.89-2A.27.27,0,0,0,386.47,421.74Z" style="fill: rgb(38, 50, 56); transform-origin: 380.009px 422.76px;" id="elppagpbxh9qf" class="animable"></path><path d="M389.5,423.78c-4.29-1-9.63-.64-13.11,2.28-.13.11,0,.3.17.27a61,61,0,0,1,12.9-2A.28.28,0,0,0,389.5,423.78Z" style="fill: rgb(38, 50, 56); transform-origin: 383.024px 424.805px;" id="el66tg9kq3xrc" class="animable"></path><path d="M388.93,408c-1.58-2.43-4.81-1.54-6.7-.11A23,23,0,0,0,375,417.5c0,.08,0,.14.09.16,0,.33.27.69.65.57,3.65-1.14,7.7-1.9,10.89-4.13C388.53,412.8,390.43,410.32,388.93,408Zm-8,7.35c-1.78.61-3.58,1.12-5.34,1.79,1.41-1.86,2.73-3.78,4.33-5.51a24.51,24.51,0,0,1,2.42-2.36c1.35-1.11,6.59-3.34,5.58,1.38C387.39,413.27,383.09,414.65,381,415.37Z" style="fill: rgb(38, 50, 56); transform-origin: 382.235px 412.368px;" id="eltd7ceia37f" class="animable"></path><path d="M364.07,415.79c3.5,1.71,7.61,1.85,11.39,2.41.39.06.61-.34.56-.67a.12.12,0,0,0,.07-.17A23.22,23.22,0,0,0,367.5,409c-2.09-1.12-5.41-1.5-6.6,1.15S362,414.8,364.07,415.79Zm-1.8-3.19c-1.72-4.51,3.8-3.11,5.3-2.22a25.5,25.5,0,0,1,2.76,2,68.25,68.25,0,0,1,5.13,4.78c-1.85-.39-3.7-.62-5.56-.95C367.69,415.79,363.22,415.09,362.27,412.6Z" style="fill: rgb(38, 50, 56); transform-origin: 368.338px 413.176px;" id="elcxveay86cis" class="animable"></path><path d="M256,454.53c2.34.65,68.1-2.75,70.52-4.46,1.12-.79,1-14.81.52-29.58l-42.78,2.08.6,7.71S260.26,442.84,257.8,445,253.67,453.88,256,454.53Z" style="fill: #46FF27; transform-origin: 291.137px 437.551px;" id="el6nix1rgo24y" class="animable"></path><path d="M256.81,451.85c11-.84,55.49-3.19,66.44-3.18.08,0,.09.06,0,.07-10.89,1.07-55.39,3.06-66.43,3.29C256.59,452,256.58,451.87,256.81,451.85Z" style="fill: rgb(38, 50, 56); transform-origin: 289.978px 450.35px;" id="elulmrmclm43" class="animable"></path><path d="M283.18,427.91c4.29-1,9.63-.64,13.11,2.28.13.11,0,.3-.18.26a60.92,60.92,0,0,0-12.89-2A.27.27,0,0,1,283.18,427.91Z" style="fill: rgb(38, 50, 56); transform-origin: 289.636px 428.931px;" id="elmy1h44l6af" class="animable"></path><path d="M280.14,430c4.3-1,9.64-.65,13.11,2.27.14.12,0,.31-.17.27a61,61,0,0,0-12.89-2A.27.27,0,0,1,280.14,430Z" style="fill: rgb(38, 50, 56); transform-origin: 286.601px 431.02px;" id="elx3y0taq3k1" class="animable"></path><path d="M277.11,432c4.3-1,9.63-.64,13.11,2.28.13.12,0,.31-.17.27a61,61,0,0,0-12.89-2A.28.28,0,0,1,277.11,432Z" style="fill: rgb(38, 50, 56); transform-origin: 283.587px 433.026px;" id="elyvdtzaqssx" class="animable"></path><path d="M274.08,434.05c4.29-1,9.63-.64,13.11,2.28.13.11,0,.3-.18.27a60.92,60.92,0,0,0-12.89-2A.28.28,0,0,1,274.08,434.05Z" style="fill: rgb(38, 50, 56); transform-origin: 280.556px 435.075px;" id="elcfv43ycus" class="animable"></path><path d="M276.91,424.37c3.19,2.23,7.24,3,10.88,4.13a.54.54,0,0,0,.66-.57c.07,0,.13-.08.09-.16a23.11,23.11,0,0,0-7.19-9.59c-1.89-1.43-5.12-2.32-6.7.11S275.05,423.07,276.91,424.37Zm-1.28-3.43c-1-4.72,4.22-2.49,5.57-1.38a24.62,24.62,0,0,1,2.43,2.36c1.6,1.73,2.92,3.65,4.33,5.51-1.76-.67-3.56-1.18-5.35-1.79C280.49,424.92,276.18,423.54,275.63,420.94Z" style="fill: rgb(38, 50, 56); transform-origin: 281.314px 422.643px;" id="elq3tql5qu6kc" class="animable"></path><path d="M302.68,420.41c-1.19-2.65-4.52-2.27-6.6-1.15a23.15,23.15,0,0,0-8.59,8.37c-.05.08,0,.14.07.17a.53.53,0,0,0,.55.67c3.79-.56,7.9-.7,11.4-2.41C301.55,425.07,303.8,422.92,302.68,420.41Zm-9,6c-1.85.33-3.71.56-5.55.95,1.68-1.63,3.28-3.32,5.12-4.78a25.63,25.63,0,0,1,2.77-2c1.5-.89,7-2.29,5.3,2.22C300.35,425.36,295.88,426.06,293.67,426.44Z" style="fill: rgb(38, 50, 56); transform-origin: 295.224px 423.439px;" id="elc747ev1xxhj" class="animable"></path></g><g id="freepik--Table--inject-37" class="animable" style="transform-origin: 181.62px 368.065px;"><rect x="120.14" y="376.39" width="122.96" height="11.28" style="fill: #46FF27; transform-origin: 181.62px 382.03px;" id="el3d2n65kl26u" class="animable"></rect><g id="elq6vm87xhen"><rect x="120.14" y="376.39" width="122.96" height="11.28" style="opacity: 0.5; transform-origin: 181.62px 382.03px;" class="animable" id="el9i0svwzp3ki"></rect></g><polygon points="154.44 387.68 150.27 396.43 129.85 439.23 124.63 439.23 138.35 396.43 141.15 387.68 154.44 387.68" style="fill: #46FF27; transform-origin: 139.535px 413.455px;" id="el55o5pho4x9v" class="animable"></polygon><g id="el5s31pfsjesp"><g style="opacity: 0.5; transform-origin: 139.535px 413.455px;" class="animable" id="el1srf8myxlix"><polygon points="154.44 387.68 150.27 396.43 129.85 439.23 124.63 439.23 138.35 396.43 141.15 387.68 154.44 387.68" id="el8kx3slsi3ax" class="animable" style="transform-origin: 139.535px 413.455px;"></polygon></g></g><g id="elvlbb19ye24"><polygon points="141.15 387.68 154.44 387.68 150.27 396.43 138.35 396.43 141.15 387.68" style="opacity: 0.2; transform-origin: 146.395px 392.055px;" class="animable" id="elzmnkmr6wfc"></polygon></g><polygon points="238.62 439.23 233.4 439.23 212.98 396.43 208.81 387.68 222.09 387.68 224.89 396.43 238.62 439.23" style="fill: #46FF27; transform-origin: 223.715px 413.455px;" id="el169z5xnom99" class="animable"></polygon><g id="elsj1bh3y9yf"><g style="opacity: 0.5; transform-origin: 223.715px 413.455px;" class="animable" id="el1b69r09szb5"><polygon points="238.62 439.23 233.4 439.23 212.98 396.43 208.81 387.68 222.09 387.68 224.89 396.43 238.62 439.23" id="elesaqttjg107" class="animable" style="transform-origin: 223.715px 413.455px;"></polygon></g></g><g id="elidcg7098djr"><polygon points="224.89 396.43 212.98 396.43 208.81 387.68 222.09 387.68 224.89 396.43" style="opacity: 0.2; transform-origin: 216.85px 392.055px;" class="animable" id="ellguks3uhhjj"></polygon></g><g id="elinfbq8mb39f"><path d="M163.67,348.88s15.37-7.49,15.16-17.08S158.35,316.48,158.18,309s8.52-12.1,8.52-12.1-13.77,5.05-13.56,14.52,13.63,15.61,15,21.62C170.12,341.36,163.67,348.88,163.67,348.88Z" style="fill: rgb(235, 235, 235); opacity: 0.6; transform-origin: 165.985px 322.89px;" class="animable" id="el66e6mi0729d"></path></g><g id="el1rdq1yfliq1j"><path d="M164.44,348.87s-15.65-5.29-15.82-12.82,19.87-12.84,19.74-18.73-9-9.17-9-9.17,13.95,3.42,14.11,10.88-15,12.91-15.92,19S164.44,348.87,164.44,348.87Z" style="fill: rgb(235, 235, 235); opacity: 0.6; transform-origin: 161.045px 328.51px;" class="animable" id="elm2tvntki7q"></path></g><rect x="156.24" y="374.06" width="14.97" height="2.34" style="fill: #46FF27; transform-origin: 163.725px 375.23px;" id="elzodxx0pb30e" class="animable"></rect><g id="el51339h11cex"><rect x="156.24" y="374.06" width="14.97" height="1.54" style="opacity: 0.1; transform-origin: 163.725px 374.83px;" class="animable" id="elwnxgka67d2b"></rect></g><path d="M138.46,367.77a8.49,8.49,0,0,0,8.44,3.61,9.24,9.24,0,0,0,1.52-.44,10.75,10.75,0,0,0,2.11-1.11l-1.9-2.82a6.88,6.88,0,0,1-1.12.64,5,5,0,0,1-6.27-1.84c-2.05-2.89-2.79-9.47-.71-12,.14-.19.74-.48,3.15,0,.45.1.95.21,1.52.37a5.89,5.89,0,0,0,1.37.29l.06-1.69.17-1.69c-.16,0-.4-.1-.72-.19a22.19,22.19,0,0,0-3.4-.7c-1.78-.19-3.64,0-4.78,1.43C134.52,355.79,135.89,364.16,138.46,367.77Z" style="fill: #46FF27; transform-origin: 143.211px 360.818px;" id="elrbre7ogqvvk" class="animable"></path><g id="elyknj5t9suh"><path d="M148.63,367a6.88,6.88,0,0,1-1.12.64l.91,3.29a10.75,10.75,0,0,0,2.11-1.11Z" style="opacity: 0.1; transform-origin: 149.02px 368.965px;" class="animable" id="elhk8h5wni5ih"></path></g><g id="el0da090c77q1r"><path d="M142.68,350.22l1,3.61c.45.1.95.21,1.52.37a5.89,5.89,0,0,0,1.37.29l.06-1.69.17-1.69c-.16,0-.4-.1-.72-.19A22.19,22.19,0,0,0,142.68,350.22Z" style="opacity: 0.1; transform-origin: 144.74px 352.355px;" class="animable" id="el3ny2dpy7tkq"></path></g><path d="M183.65,345.8s-1.8,15.26-4.9,21.69-7.44,7.14-10.13,7.14h-9.79c-2.69,0-7-.72-10.12-7.14s-4.9-21.69-4.9-21.69Z" style="fill: #46FF27; transform-origin: 163.73px 360.215px;" id="elffr0h5xxsvc" class="animable"></path><g id="elohyucjrooa"><path d="M181.72,357.54c-.15.65-.29,1.29-.43,1.94H146.16l-.42-1.94Z" style="opacity: 0.1; transform-origin: 163.73px 358.51px;" class="animable" id="eld03h2q2pxbm"></path></g><g id="el415fquofg7d"><path d="M180.81,361.42a41.62,41.62,0,0,1-1.23,4.05H147.87c-.45-1.22-.85-2.6-1.23-4.05Z" style="opacity: 0.1; transform-origin: 163.725px 363.445px;" class="animable" id="elmaeqvh7fdf"></path></g></g><defs>     <filter id="active" height="200%">         <feMorphology in="SourceAlpha" result="DILATED" operator="dilate" radius="2"></feMorphology>                <feFlood flood-color="#32DFEC" flood-opacity="1" result="PINK"></feFlood>        <feComposite in="PINK" in2="DILATED" operator="in" result="OUTLINE"></feComposite>        <feMerge>            <feMergeNode in="OUTLINE"></feMergeNode>            <feMergeNode in="SourceGraphic"></feMergeNode>        </feMerge>    </filter>    <filter id="hover" height="200%">        <feMorphology in="SourceAlpha" result="DILATED" operator="dilate" radius="2"></feMorphology>                <feFlood flood-color="#ff0000" flood-opacity="0.5" result="PINK"></feFlood>        <feComposite in="PINK" in2="DILATED" operator="in" result="OUTLINE"></feComposite>        <feMerge>            <feMergeNode in="OUTLINE"></feMergeNode>            <feMergeNode in="SourceGraphic"></feMergeNode>        </feMerge>            <feColorMatrix type="matrix" values="0   0   0   0   0                0   1   0   0   0                0   0   0   0   0                0   0   0   1   0 "></feColorMatrix>    </filter></defs></svg>